<?xml version="1.0" standalone="no"?>
<!DOCTYPE svg PUBLIC "-//W3C//DTD SVG 20010904//EN"
 "http://www.w3.org/TR/2001/REC-SVG-20010904/DTD/svg10.dtd">
<svg version="1.0" xmlns="http://www.w3.org/2000/svg"
 width="1920.000000pt" height="1080.000000pt" viewBox="0 0 1920.000000 1080.000000"
 preserveAspectRatio="xMidYMid meet">

<g transform="translate(0.000000,1080.000000) scale(0.100000,-0.100000)"
fill="#000000" stroke="none">
<path d="M15072 10759 c-1 -25 2 -38 8 -34 7 4 8 -3 4 -20 -4 -16 -1 -37 7
-52 12 -22 11 -27 -5 -39 -16 -11 -17 -16 -6 -29 7 -8 9 -15 6 -15 -4 0 -3 -8
3 -17 5 -10 11 -108 15 -219 5 -210 13 -284 27 -284 5 0 9 -4 9 -10 0 -5 -6
-10 -14 -10 -9 0 -13 -10 -12 -25 1 -19 7 -25 24 -25 13 0 22 -6 22 -15 0 -8
-5 -15 -11 -15 -6 0 -8 -11 -5 -27 3 -16 7 -64 8 -108 1 -58 6 -89 20 -114 15
-26 16 -36 7 -42 -8 -5 -14 -34 -15 -76 -2 -54 2 -70 16 -83 16 -14 17 -23 8
-90 -6 -41 -10 -91 -9 -110 1 -19 1 -52 1 -72 0 -27 5 -38 15 -38 8 0 15 -6
15 -14 0 -25 -12 -46 -26 -46 -19 0 -18 -10 4 -26 14 -12 15 -15 3 -23 -13 -8
-12 -15 2 -48 12 -27 17 -62 15 -123 0 -47 5 -109 12 -138 11 -46 10 -61 -5
-109 -14 -44 -15 -57 -5 -63 12 -8 12 -15 -7 -87 l-5 -23 1486 0 1486 0 0
-1679 c0 -1591 1 -1680 18 -1686 9 -3 31 -17 47 -31 l30 -26 -47 5 -48 5 0
-34 c0 -31 2 -34 23 -29 85 22 323 1 477 -40 100 -27 193 -67 168 -73 -9 -2
-25 1 -35 6 -10 6 -74 15 -143 22 -144 15 -221 7 -385 -38 l-100 -28 -3 -1002
-2 -1002 -1545 0 -1544 0 20 -57 c11 -33 35 -73 54 -93 67 -69 66 -110 -4
-173 -34 -30 -49 -37 -84 -37 -46 0 -104 25 -121 51 -7 12 -5 24 7 42 14 21
24 25 67 25 76 0 82 14 32 65 -47 48 -53 81 -28 142 l15 35 -1231 0 c-1080 0
-1229 -2 -1218 -15 24 -29 4 -38 -24 -11 -33 30 -35 30 -58 12 -19 -14 -24
-46 -8 -46 6 0 10 -11 10 -25 0 -16 -6 -25 -15 -25 -8 0 -15 -4 -15 -10 0 -5
9 -10 20 -10 12 0 20 -7 20 -18 0 -9 -9 -23 -20 -30 -13 -8 -20 -24 -21 -45
-1 -17 -3 -25 -6 -15 -5 20 -85 29 -102 11 -14 -15 -14 -33 -1 -33 22 0 8 -28
-20 -40 -32 -13 -39 -34 -15 -44 8 -3 15 -12 15 -20 0 -11 -6 -13 -28 -6 -16
4 -36 4 -45 -2 -21 -11 -23 -42 -3 -35 17 7 28 -16 20 -38 -6 -15 -12 -17 -69
-19 -26 -1 -30 -5 -33 -34 -3 -32 15 -62 37 -62 6 0 11 -4 11 -10 0 -5 -13
-10 -30 -10 -22 0 -30 5 -30 18 0 9 -11 22 -24 28 -21 10 -26 8 -37 -12 -7
-13 -16 -24 -21 -24 -4 0 -8 -9 -8 -20 0 -11 4 -20 9 -20 5 0 11 -9 14 -20 5
-18 0 -20 -41 -21 -44 -1 -45 -1 -19 -11 31 -11 34 -23 12 -44 -8 -9 -15 -26
-15 -39 0 -14 -7 -25 -20 -28 -17 -4 -20 0 -20 28 0 28 -3 32 -20 28 -15 -4
-18 -11 -14 -28 4 -15 0 -26 -9 -32 -9 -4 -15 -17 -14 -28 2 -15 -3 -19 -18
-17 -26 5 -24 1 -36 72 -13 81 -22 96 -67 117 -43 19 -287 28 -329 12 -20 -7
-28 -6 -37 6 -15 20 -42 10 -51 -18 -4 -14 -8 -17 -12 -9 -8 19 -40 14 -46 -8
-6 -23 -37 -26 -67 -8 -17 11 -22 10 -30 -2 -17 -26 -12 -42 10 -35 14 5 20 2
20 -9 0 -9 -9 -16 -20 -16 -11 0 -20 5 -20 10 0 15 -36 12 -49 -4 -27 -32 14
-201 125 -516 28 -82 50 -112 95 -130 30 -13 37 -37 19 -70 -7 -13 -6 -26 4
-45 8 -15 12 -34 9 -41 -3 -7 23 -55 56 -105 44 -66 58 -96 51 -103 -6 -6 -39
-11 -73 -12 -107 -2 -114 -3 -120 -23 -5 -21 -34 -29 -132 -37 -53 -4 -99 1
-190 21 -85 18 -212 33 -440 50 -176 14 -417 34 -535 45 -118 10 -312 26 -430
35 -118 8 -267 20 -330 25 -63 5 -185 14 -270 20 -85 6 -213 15 -285 21 -71 5
-202 14 -290 19 -88 6 -191 14 -230 20 -38 5 -108 12 -155 15 -47 3 -110 10
-140 15 -30 5 -71 9 -90 8 -20 0 -44 4 -55 9 -44 23 -279 41 -290 23 -3 -5
-24 -10 -45 -10 -29 0 -42 -5 -50 -20 -9 -17 -7 -19 17 -18 16 0 51 -4 78 -11
28 -6 79 -18 115 -26 68 -15 210 -20 210 -7 0 4 15 8 33 9 17 1 58 3 90 5 31
2 57 0 57 -4 0 -5 7 -8 16 -8 9 0 22 -6 28 -14 12 -15 86 -30 86 -17 0 5 11 6
25 3 14 -2 25 -8 25 -13 0 -5 18 -9 40 -9 22 0 40 5 40 10 0 6 8 10 17 10 26
0 103 -31 103 -42 0 -4 12 -5 26 -2 15 4 29 2 33 -4 6 -11 201 -42 296 -48 66
-4 310 -30 460 -48 66 -8 154 -18 195 -21 41 -4 129 -15 195 -25 127 -19 214
-30 440 -55 77 -9 178 -22 225 -30 81 -13 150 -20 316 -31 60 -4 79 -1 113 16
38 20 46 21 133 10 94 -11 138 -26 145 -47 9 -27 -157 -29 -427 -3 -158 16
-1175 -5 -1324 -26 -80 -11 -25 -20 170 -28 93 -4 198 -9 234 -11 36 -2 175
-9 310 -15 135 -6 272 -13 305 -16 101 -9 513 -21 855 -23 179 -2 352 -4 385
-6 33 -2 130 1 215 6 156 10 196 7 455 -32 98 -15 103 -17 120 -50 18 -33 56
-42 48 -10 -3 12 2 20 14 23 22 6 74 -12 56 -19 -16 -6 -17 -23 -2 -23 6 0 17
-7 25 -15 22 -21 63 -30 77 -16 9 9 6 17 -13 32 -33 26 -3 20 35 -7 17 -12 46
-24 65 -28 50 -10 80 -27 80 -45 0 -10 3 -12 8 -5 10 16 99 28 107 14 3 -5 30
-10 59 -10 36 0 58 -5 66 -15 9 -11 22 -14 43 -9 22 4 28 3 25 -7 -2 -7 -15
-16 -29 -19 -28 -7 -35 -37 -15 -63 9 -12 28 -18 57 -19 24 0 58 -6 74 -13 17
-7 57 -13 89 -13 55 0 68 -6 78 -34 2 -4 30 -3 62 2 49 8 63 7 76 -5 9 -8 22
-15 28 -15 7 0 12 -4 12 -10 0 -13 33 -13 46 0 23 23 144 -41 144 -77 0 -7 9
-13 20 -13 11 0 20 7 20 15 0 25 39 17 81 -16 30 -23 47 -30 69 -27 24 4 30 1
30 -14 0 -10 7 -18 15 -18 8 0 15 -4 15 -10 0 -5 10 -10 23 -11 l22 0 -23 -11
c-17 -9 -32 -9 -56 0 -40 15 -73 15 -81 2 -3 -5 -18 -10 -33 -10 -35 0 -57
-32 -42 -60 6 -11 20 -20 30 -20 13 0 20 -7 20 -20 0 -11 7 -20 15 -20 8 0 15
9 15 20 0 11 -7 20 -15 20 -17 0 -19 18 -5 40 9 13 11 13 20 0 5 -8 14 -22 19
-30 6 -9 25 -14 51 -14 33 1 40 -2 40 -17 0 -11 5 -19 10 -19 6 0 10 9 10 20
0 11 5 20 10 20 6 0 10 -9 10 -20 0 -14 7 -20 21 -20 15 0 19 5 15 15 -4 11 1
15 19 15 18 0 26 -7 31 -25 6 -24 24 -36 24 -16 0 5 33 12 73 16 39 4 81 14
92 21 23 17 35 18 35 4 0 -5 -9 -10 -19 -10 -10 0 -22 -7 -25 -16 -4 -10 -13
-13 -26 -9 -15 5 -20 2 -20 -13 0 -16 7 -18 50 -16 49 2 90 -18 90 -45 0 -6 4
-11 9 -11 5 0 18 -3 28 -6 14 -5 15 -4 4 4 -8 6 -11 17 -8 26 9 23 44 20 50
-4 6 -23 27 -27 27 -5 0 9 9 15 24 15 13 0 26 6 29 13 4 9 7 9 18 0 7 -7 21
-13 31 -13 10 0 18 -4 18 -10 0 -5 -4 -10 -10 -10 -5 0 -10 -4 -10 -9 0 -5 87
-9 193 -9 122 0 184 3 170 8 -29 12 -31 50 -3 50 12 0 20 7 20 16 0 12 -7 15
-30 12 -29 -4 -30 -3 -30 34 0 31 3 38 20 38 11 0 20 -4 20 -9 0 -5 11 -8 25
-7 19 1 25 7 25 24 0 12 5 22 10 22 6 0 10 -13 10 -30 0 -24 4 -30 23 -30 19
0 22 5 22 40 1 27 7 44 20 54 21 15 126 29 150 20 8 -3 15 -2 15 3 0 5 15 10
33 10 17 0 43 0 57 1 62 2 126 -4 140 -13 8 -5 33 -10 55 -11 43 -3 128 -35
139 -53 4 -6 18 -11 31 -11 27 0 38 -31 29 -78 -5 -24 -2 -31 12 -35 13 -3 10
-5 -8 -6 -16 0 -28 -7 -28 -14 0 -7 -12 -18 -27 -24 -21 -8 222 -11 903 -12
808 -1 936 1 960 14 37 19 78 19 140 0 42 -13 170 -15 857 -15 l807 0 0 5400
0 5400 -594 0 -595 0 -3 -22 c-2 -15 -11 -24 -27 -26 -13 -2 -26 -12 -28 -23
-7 -26 -49 -25 -63 1 -6 11 -8 24 -5 29 3 5 -4 12 -15 16 -11 3 -20 11 -20 16
0 5 -536 9 -1388 9 l-1389 0 -1 -41z m2250 -471 c-7 -7 -12 -8 -12 -2 0 14 12
26 19 19 2 -3 -1 -11 -7 -17z m-82 -73 c17 -11 26 -23 20 -29 -4 -4 -6 -15 -3
-24 4 -10 2 -13 -5 -8 -12 7 -16 -5 -13 -32 1 -8 -3 -20 -9 -27 -6 -8 -10 -27
-9 -43 2 -16 -2 -36 -8 -44 -7 -8 -11 -39 -10 -73 1 -39 -2 -60 -10 -62 -9 -3
-11 -14 -7 -30 5 -18 3 -24 -5 -19 -6 4 -11 1 -11 -7 0 -16 -60 -149 -70 -157
-11 -8 -40 -67 -40 -81 0 -6 -16 -34 -35 -60 -19 -27 -35 -51 -35 -54 0 -2
-13 -24 -30 -48 -16 -25 -30 -49 -30 -55 0 -6 -4 -12 -8 -14 -10 -3 -92 -168
-92 -184 0 -6 -15 -28 -33 -50 -33 -38 -68 -101 -124 -219 -15 -33 -31 -62
-34 -65 -3 -3 -11 -22 -18 -42 -7 -20 -19 -42 -27 -49 -8 -7 -21 -27 -29 -46
-22 -53 -61 -83 -109 -83 -54 0 -85 17 -108 59 -10 18 -25 40 -33 48 -8 8 -15
16 -15 18 0 2 -7 37 -15 77 -11 50 -13 79 -6 93 5 11 15 38 22 60 7 22 19 50
27 63 8 12 11 22 7 22 -9 0 32 68 61 100 12 14 36 54 54 90 43 87 92 153 127
170 45 23 100 84 132 147 68 136 84 164 105 181 13 9 26 30 30 47 7 28 29 60
89 127 15 17 27 37 27 44 0 8 4 14 9 14 5 0 11 9 14 21 3 12 10 18 16 14 7 -3
11 3 12 17 1 17 3 18 6 6 5 -22 43 -24 43 -3 0 21 21 57 43 73 9 7 17 22 17
32 0 10 8 21 19 25 10 3 18 13 17 22 0 10 9 19 24 23 20 5 25 12 23 36 -1 16
1 22 3 14 3 -8 18 -24 34 -35z m-1480 -7571 c108 -22 143 -68 73 -95 -55 -21
-223 14 -243 52 -7 12 -7 19 -1 19 5 0 13 9 16 20 8 25 50 26 155 4z m-3393
-176 c-3 -7 -5 -2 -5 12 0 14 2 19 5 13 2 -7 2 -19 0 -25z m2488 -328 c8 -15
12 -37 10 -49 -2 -12 -2 -28 1 -35 7 -17 40 -7 339 104 28 10 95 37 150 60 55
23 122 51 150 62 27 11 61 26 75 33 47 25 159 56 192 53 25 -2 33 -8 33 -23 0
-15 -84 -61 -430 -235 -236 -119 -452 -231 -480 -248 -27 -18 -75 -39 -107
-48 -63 -18 -101 -53 -96 -88 3 -19 12 -21 118 -27 63 -3 165 -13 225 -23 99
-15 556 -63 950 -101 83 -8 190 -19 240 -24 49 -6 93 -7 96 -3 4 4 10 32 13
62 3 30 6 69 8 85 l3 30 -66 1 c-91 1 -174 41 -263 125 -90 85 -103 105 -120
183 -7 37 -20 75 -29 84 -21 24 -28 54 -17 72 8 13 11 12 25 -5 8 -11 18 -31
21 -45 12 -54 27 -79 77 -131 47 -50 64 -62 117 -83 8 -4 29 -15 45 -26 47
-30 112 -60 132 -60 39 0 157 -30 164 -41 4 -8 -2 -24 -17 -42 -29 -34 -31
-72 -7 -168 12 -52 25 -77 48 -101 30 -28 31 -34 22 -65 -10 -31 -8 -35 24
-64 19 -17 41 -36 50 -42 9 -7 24 -28 34 -47 10 -19 23 -38 29 -42 7 -5 10
-47 9 -124 -2 -103 -5 -120 -23 -136 -11 -10 -20 -29 -20 -42 0 -13 -7 -29
-15 -36 -8 -7 -15 -18 -15 -26 0 -17 -96 -44 -159 -44 -37 0 -53 -4 -57 -15
-4 -8 -18 -15 -33 -14 -14 0 -20 3 -13 6 37 15 -2 22 -119 22 -72 0 -137 5
-143 11 -12 9 -112 19 -411 40 -595 42 -731 55 -845 84 -52 13 -153 38 -225
54 -118 27 -150 36 -223 63 -20 8 -22 13 -16 61 4 34 1 77 -9 118 -20 82 -28
165 -18 176 4 5 22 55 40 111 24 75 38 104 52 108 32 10 48 46 85 187 40 149
59 187 109 217 37 21 46 39 90 159 16 42 41 88 61 108 29 31 39 36 69 32 26
-3 35 0 36 12 1 8 6 -32 11 -89 5 -57 15 -116 23 -131z m-2685 145 c0 -8 -5
-25 -11 -39 -9 -20 -9 -29 1 -41 14 -16 10 -18 -14 -9 -11 4 -16 19 -16 48 0
24 3 46 7 49 12 12 33 7 33 -8z m-56 -138 c11 -11 11 -16 0 -32 -16 -22 -19
-20 -28 18 -7 29 6 36 28 14z m-720 -31 c-3 -9 -10 -16 -15 -16 -14 0 -11 28
4 33 16 6 19 3 11 -17z m-44 -11 c0 -26 -24 -34 -63 -22 -53 17 -47 35 13 35
34 0 50 -4 50 -13z m664 -50 c-4 -8 -1 -15 5 -15 6 0 11 5 11 12 0 6 3 9 6 5
11 -11 -8 -47 -25 -47 -27 0 -31 10 -14 36 17 27 25 31 17 9z m-1085 -996 c24
-9 29 -14 19 -20 -19 -13 -162 -11 -195 2 -26 10 -27 12 -8 19 30 13 147 12
184 -1z m5253 -334 c-5 -26 -21 -36 -51 -33 -31 4 -37 21 -15 42 24 24 70 17
66 -9z m-264 6 c17 -5 49 -23 69 -40 21 -17 43 -31 51 -31 7 0 23 -6 35 -14
12 -7 67 -28 122 -46 55 -18 114 -38 130 -45 17 -7 55 -22 85 -34 30 -11 111
-42 180 -69 69 -27 150 -57 180 -67 30 -10 80 -33 111 -52 42 -26 70 -35 115
-38 160 -12 214 -30 182 -62 -15 -14 -24 -15 -75 -4 -32 7 -87 22 -123 33 -36
12 -99 25 -140 28 -125 13 -210 29 -330 66 -63 20 -124 40 -135 44 -11 5 -43
11 -70 13 -49 5 -155 50 -155 66 0 4 -26 20 -57 34 -32 14 -65 31 -73 37 -23
15 -152 71 -257 110 -18 7 -33 19 -33 27 0 7 -7 16 -15 19 -8 4 -15 12 -15 20
0 11 20 14 93 14 50 0 107 -4 125 -9z m140 -7 c14 -15 14 -16 -3 -13 -10 2
-20 10 -23 17 -5 17 6 15 26 -4z m132 -55 c0 -6 -4 -7 -10 -4 -5 3 -10 11 -10
16 0 6 5 7 10 4 6 -3 10 -11 10 -16z m-3165 -69 c4 -6 16 -8 26 -5 11 4 26 1
34 -5 8 -7 26 -10 40 -7 20 3 25 1 23 -12 -5 -26 -100 -22 -132 6 -14 12 -26
25 -26 28 0 9 29 5 35 -5z m3120 -151 c4 -6 5 -12 2 -15 -7 -7 -37 7 -37 17 0
13 27 11 35 -2z m-1635 -198 c0 -11 -4 -23 -10 -26 -5 -3 -10 -17 -10 -31 0
-13 -4 -24 -10 -24 -5 0 -10 11 -10 25 0 14 5 25 10 25 6 0 10 11 10 25 0 14
5 25 10 25 6 0 10 -9 10 -19z m-370 -15 c0 -16 -14 -36 -26 -36 -14 0 -19 22
-7 33 7 8 33 10 33 3z m646 -10 c20 -20 18 -26 -11 -26 -18 0 -25 5 -25 20 0
23 16 26 36 6z m-416 -31 c0 -18 -5 -25 -20 -25 -11 0 -20 -7 -20 -15 0 -8 -4
-15 -10 -15 -5 0 -10 18 -10 40 0 38 2 40 30 40 25 0 30 -4 30 -25z m-425 -15
c3 -5 -1 -10 -9 -10 -9 0 -16 5 -16 10 0 6 4 10 9 10 6 0 13 -4 16 -10z m255
0 c0 -5 -7 -10 -15 -10 -8 0 -15 5 -15 10 0 6 7 10 15 10 8 0 15 -4 15 -10z
m274 -27 l15 -28 10 25 10 25 0 -27 c1 -25 -2 -28 -34 -28 -32 0 -35 2 -35 30
0 37 15 39 34 3z m-60 2 c3 -8 0 -15 -7 -15 -7 0 -17 -15 -22 -32 -12 -41 -45
-51 -45 -14 0 15 8 30 20 36 11 6 20 17 20 25 0 20 26 19 34 0z"/>
<path d="M17197 10173 c-13 -12 -7 -43 7 -43 19 0 28 14 20 34 -7 17 -16 20
-27 9z"/>
<path d="M210 7000 c0 -5 5 -10 10 -10 6 0 10 5 10 10 0 6 -4 10 -10 10 -5 0
-10 -4 -10 -10z"/>
<path d="M437 7003 c-16 -15 -6 -33 18 -33 18 0 25 5 25 20 0 20 -28 28 -43
13z"/>
<path d="M338 6993 c-20 -3 -28 -10 -28 -24 0 -10 7 -19 15 -19 12 0 11 -4 -5
-20 -25 -25 -29 -25 -49 -2 -16 18 -71 42 -97 42 -8 0 -14 -8 -14 -18 0 -18
-48 -44 -85 -46 -16 -1 -21 -9 -23 -43 -3 -41 -14 -54 -27 -33 -3 6 -10 10
-16 10 -5 0 -9 -490 -9 -1288 l0 -1289 24 -11 c13 -6 41 -14 63 -17 21 -4 55
-19 77 -33 34 -23 72 -41 126 -58 14 -5 76 34 206 129 62 45 173 108 235 133
32 13 79 37 105 54 27 16 56 30 66 30 18 0 19 21 15 563 -3 446 -7 580 -19
647 -10 52 -12 91 -7 102 5 9 7 23 4 30 -3 7 -7 65 -8 128 -2 76 -7 115 -15
118 -8 2 -12 27 -12 67 0 35 -4 67 -10 70 -14 9 -13 75 2 75 7 0 5 5 -4 13
-13 9 -17 34 -20 112 -2 55 -7 103 -13 107 -5 4 -11 22 -11 40 -1 18 -5 56 -9
83 -3 28 -7 77 -9 110 -1 33 -7 69 -13 80 -6 11 -13 36 -17 56 -8 46 -43 61
-48 21 -2 -14 -9 -27 -16 -30 -9 -3 -11 3 -6 22 5 23 3 26 -20 26 -15 0 -26
-6 -26 -14 0 -26 -43 -27 -67 -2 -15 16 -29 22 -46 19 -14 -3 -28 0 -31 6 -12
18 -36 12 -36 -9 0 -22 -25 -27 -34 -7 -5 10 -7 10 -12 0 -11 -25 -34 -14 -34
17 0 20 5 30 15 30 8 0 15 7 15 15 0 15 -15 17 -72 8z"/>
<path d="M6760 5840 l0 -170 30 0 30 0 0 65 0 65 50 0 c47 0 50 2 50 25 0 23
-3 25 -50 25 l-50 0 0 80 0 80 -30 0 -30 0 0 -170z"/>
<path d="M7480 5675 l0 -335 30 0 30 0 0 175 0 175 55 0 c52 0 55 1 55 25 0
24 -3 25 -55 25 l-55 0 0 135 0 135 -30 0 -30 0 0 -335z"/>
<path d="M8230 5900 l0 -110 -75 0 c-73 0 -75 -1 -75 -25 0 -24 2 -25 75 -25
l75 0 0 -200 0 -200 30 0 30 0 0 335 0 335 -30 0 -30 0 0 -110z"/>
<path d="M10320 5955 l0 -55 -90 0 c-89 0 -90 0 -90 -25 l0 -25 205 0 205 0 0
25 c0 25 -1 25 -90 25 l-90 0 0 55 c0 52 -1 55 -25 55 -24 0 -25 -3 -25 -55z"/>
<path d="M10610 5675 l0 -335 30 0 30 0 0 155 0 155 55 0 c52 0 55 1 55 25 0
24 -3 25 -55 25 l-55 0 0 155 0 155 -30 0 -30 0 0 -335z"/>
<path d="M11370 5675 l0 -335 30 0 30 0 0 335 0 335 -30 0 -30 0 0 -335z"/>
<path d="M6410 5989 c-89 -37 -127 -146 -77 -219 41 -61 70 -75 152 -75 59 0
79 4 101 21 51 38 69 71 69 129 0 58 -18 91 -68 129 -31 23 -136 32 -177 15z
m163 -79 c40 -44 34 -112 -12 -147 -46 -35 -146 -22 -175 22 -21 32 -20 94 2
122 41 53 138 54 185 3z"/>
<path d="M9520 5875 l0 -125 210 0 210 0 0 125 0 125 -210 0 -210 0 0 -125z
m360 0 l0 -75 -150 0 -150 0 0 75 0 75 150 0 150 0 0 -75z"/>
<path d="M11250 5890 l0 -110 -60 0 c-57 0 -60 -1 -60 -25 0 -24 3 -25 60 -25
l60 0 0 -185 0 -185 30 0 30 0 0 320 0 320 -30 0 -30 0 0 -110z"/>
<path d="M8760 5965 l0 -25 110 0 c64 0 110 -4 110 -10 0 -19 -64 -82 -104
-102 -23 -12 -67 -29 -99 -38 l-58 -16 19 -24 20 -24 55 17 c59 19 170 87 187
115 9 16 11 16 20 0 17 -28 128 -96 187 -115 l55 -17 20 24 19 23 -73 22 c-40
11 -90 33 -112 47 -36 25 -76 72 -76 91 0 4 50 7 110 7 l110 0 0 25 0 25 -250
0 -250 0 0 -25z"/>
<path d="M7120 5938 c-19 -13 -45 -45 -59 -73 -22 -41 -26 -63 -26 -130 0
-136 55 -213 156 -223 60 -6 100 10 139 54 35 41 50 90 50 169 0 106 -33 176
-101 210 -43 23 -120 19 -159 -7z m153 -55 c31 -28 47 -77 47 -148 0 -78 -26
-137 -70 -160 -37 -19 -53 -19 -91 1 -89 46 -92 261 -5 316 36 22 88 19 119
-9z"/>
<path d="M7910 5906 c0 -133 -35 -222 -123 -310 l-58 -59 20 -21 21 -20 53 56
c30 31 67 81 82 111 l29 55 29 -50 c16 -27 53 -75 83 -106 52 -54 54 -55 74
-37 20 18 19 18 -35 71 -79 76 -116 158 -123 275 -5 85 -6 89 -28 89 -22 0
-24 -4 -24 -54z"/>
<path d="M10998 5843 c-4 -109 -6 -123 -36 -181 -18 -34 -49 -81 -69 -103 -36
-39 -36 -42 -18 -55 10 -8 22 -14 25 -14 11 0 91 111 113 157 l21 43 28 -58
c15 -31 43 -75 62 -97 34 -39 34 -40 55 -21 l20 18 -34 42 c-19 23 -48 72 -66
109 -27 58 -32 82 -37 172 l-5 105 -27 0 -28 0 -4 -117z"/>
<path d="M11776 5935 c-117 -41 -154 -176 -71 -256 34 -33 35 -36 35 -111 l0
-78 -85 0 c-84 0 -85 0 -85 -25 l0 -25 320 0 320 0 0 25 c0 25 -1 25 -80 25
l-80 0 0 82 c0 79 1 83 33 116 29 30 32 38 32 97 0 59 -3 67 -34 99 -19 19
-54 42 -79 51 -56 19 -174 19 -226 0z m224 -60 c82 -42 80 -138 -3 -182 -22
-12 -56 -17 -107 -17 -110 0 -170 38 -170 109 0 75 76 119 193 110 32 -3 71
-12 87 -20z m-10 -317 l0 -68 -100 0 -100 0 0 68 0 67 100 0 100 0 0 -67z"/>
<path d="M12320 5837 c0 -46 3 -132 7 -190 6 -104 7 -107 30 -107 l23 0 0 190
0 190 -30 0 -30 0 0 -83z"/>
<path d="M10265 5786 c-102 -46 -122 -172 -39 -245 42 -37 69 -45 140 -39 91
8 149 66 148 149 -1 53 -19 87 -67 123 -34 25 -138 33 -182 12z m154 -64 c82
-61 30 -168 -80 -166 -40 0 -55 6 -79 29 -71 68 -9 174 94 161 22 -2 51 -13
65 -24z"/>
<path d="M9410 5655 l0 -25 150 0 150 0 0 -70 c0 -68 1 -70 25 -70 24 0 25 2
25 70 l0 70 145 0 145 0 0 25 0 25 -320 0 -320 0 0 -25z"/>
<path d="M8690 5635 l0 -25 145 0 145 0 0 -135 0 -135 30 0 30 0 0 135 0 135
145 0 145 0 0 25 0 25 -320 0 -320 0 0 -25z"/>
<path d="M6370 5510 c0 -149 -7 -141 104 -119 53 11 58 10 80 -10 l23 -21 41
30 c22 16 51 43 63 59 l22 31 23 -33 c12 -18 41 -46 65 -61 l43 -29 18 23 c18
22 18 23 -25 50 -51 32 -85 75 -93 119 l-6 31 61 0 c58 0 61 1 61 25 l0 25
-145 0 -145 0 0 -25 c0 -24 3 -25 55 -25 49 0 55 -2 55 -20 0 -30 -23 -70 -60
-105 -31 -29 -40 -28 -52 8 -2 4 -19 2 -38 -6 -19 -8 -50 -17 -67 -20 l-33 -6
0 104 0 105 -25 0 -25 0 0 -130z"/>
<path d="M9510 5465 l0 -105 225 0 225 0 0 25 0 25 -195 0 -195 0 0 80 0 80
-30 0 -30 0 0 -105z"/>
<path d="M12320 5451 c-16 -32 4 -63 38 -59 24 3 27 7 27 38 0 31 -3 35 -27
38 -19 2 -30 -3 -38 -17z"/>
<path d="M11800 4760 c0 -17 -7 -20 -45 -20 -25 0 -45 -4 -45 -10 0 -6 42 -10
105 -10 63 0 105 4 105 10 0 6 -20 10 -45 10 -38 0 -45 3 -45 20 0 11 -7 20
-15 20 -8 0 -15 -9 -15 -20z"/>
<path d="M4980 4700 c0 -56 -3 -70 -15 -70 -12 0 -15 14 -15 65 0 58 -2 65
-20 65 -19 0 -20 -7 -20 -160 0 -153 1 -160 20 -160 18 0 20 7 20 85 0 69 3
85 15 85 12 0 15 -17 15 -90 0 -73 3 -90 15 -90 13 0 15 26 15 170 0 144 -2
170 -15 170 -12 0 -15 -14 -15 -70z"/>
<path d="M5320 4675 c0 -78 3 -95 15 -95 11 0 15 11 15 40 0 36 3 40 25 40 14
0 25 5 25 10 0 6 -11 10 -25 10 -23 0 -25 4 -25 45 0 33 -4 45 -15 45 -12 0
-15 -17 -15 -95z"/>
<path d="M5950 4600 c0 -144 2 -170 15 -170 13 0 15 26 15 170 0 144 -2 170
-15 170 -13 0 -15 -26 -15 -170z"/>
<path d="M6310 4600 c0 -144 2 -170 15 -170 13 0 15 26 15 170 0 144 -2 170
-15 170 -13 0 -15 -26 -15 -170z"/>
<path d="M7140 4600 c0 -144 2 -170 15 -170 12 0 15 17 15 90 l0 90 30 0 c17
0 30 5 30 10 0 6 -13 10 -30 10 l-30 0 0 70 c0 56 -3 70 -15 70 -13 0 -15 -26
-15 -170z"/>
<path d="M7880 4640 c0 -109 2 -130 15 -130 13 0 15 21 15 130 0 109 -2 130
-15 130 -13 0 -15 -21 -15 -130z"/>
<path d="M8230 4670 c0 -82 3 -100 15 -100 12 0 15 18 15 100 0 82 -3 100 -15
100 -12 0 -15 -18 -15 -100z"/>
<path d="M8840 4665 l0 -105 -40 0 c-22 0 -40 -4 -40 -10 0 -5 18 -10 40 -10
33 0 40 -3 40 -20 0 -11 7 -20 15 -20 13 0 15 22 15 135 0 113 -2 135 -15 135
-12 0 -15 -18 -15 -105z"/>
<path d="M9030 4745 c0 -23 -4 -25 -45 -25 -25 0 -45 -4 -45 -10 0 -6 42 -10
105 -10 63 0 105 4 105 10 0 6 -20 10 -45 10 -41 0 -45 2 -45 25 0 16 -6 25
-15 25 -9 0 -15 -9 -15 -25z"/>
<path d="M9180 4600 c0 -144 2 -170 15 -170 12 0 15 16 15 80 l0 80 30 0 c17
0 30 5 30 10 0 6 -13 10 -30 10 l-30 0 0 80 c0 64 -3 80 -15 80 -13 0 -15 -26
-15 -170z"/>
<path d="M10040 4600 c0 -144 2 -170 15 -170 13 0 15 26 15 170 0 144 -2 170
-15 170 -13 0 -15 -26 -15 -170z"/>
<path d="M11950 4680 c0 -73 3 -90 15 -90 10 0 15 10 15 30 0 25 4 30 25 30
14 0 25 5 25 10 0 6 -11 10 -25 10 -23 0 -25 3 -25 50 0 38 -4 50 -15 50 -12
0 -15 -17 -15 -90z"/>
<path d="M12930 4675 c0 -88 1 -95 20 -95 19 0 20 7 20 95 0 88 -1 95 -20 95
-19 0 -20 -7 -20 -95z"/>
<path d="M13650 4600 c0 -163 1 -170 20 -170 19 0 20 7 20 170 0 163 -1 170
-20 170 -19 0 -20 -7 -20 -170z"/>
<path d="M14000 4600 c0 -144 2 -170 15 -170 12 0 15 17 15 95 l0 95 30 0 c17
0 30 5 30 10 0 6 -13 10 -30 10 l-30 0 0 65 c0 51 -3 65 -15 65 -13 0 -15 -26
-15 -170z"/>
<path d="M5890 4695 l0 -65 -30 0 c-16 0 -30 -4 -30 -10 0 -5 14 -10 30 -10
l30 0 0 -85 c0 -69 3 -85 15 -85 13 0 15 24 15 160 0 136 -2 160 -15 160 -12
0 -15 -14 -15 -65z"/>
<path d="M6460 4705 l0 -55 110 0 110 0 0 55 c0 48 -2 55 -20 55 -13 0 -20 -7
-20 -20 0 -18 -7 -20 -70 -20 -63 0 -70 2 -70 20 0 13 -7 20 -20 20 -18 0 -20
-7 -20 -55z m180 -20 c0 -12 -14 -15 -70 -15 -56 0 -70 3 -70 15 0 12 14 15
70 15 56 0 70 -3 70 -15z"/>
<path d="M7310 4705 l0 -55 44 0 c40 0 56 -11 56 -36 0 -2 -34 -4 -75 -4 -43
0 -75 -4 -75 -10 0 -6 60 -10 160 -10 100 0 160 4 160 10 0 6 -30 10 -70 10
-63 0 -70 2 -70 20 0 17 7 20 45 20 25 0 45 5 45 10 0 6 -38 10 -95 10 l-95 0
0 35 0 35 95 0 c57 0 95 4 95 10 0 6 -43 10 -110 10 l-110 0 0 -55z"/>
<path d="M7675 4735 c-19 -18 -25 -35 -25 -65 0 -56 34 -90 89 -90 32 0 44 6
65 31 15 17 26 43 26 59 0 16 -11 42 -26 59 -34 41 -92 44 -129 6z m100 -20
c14 -13 25 -33 25 -45 0 -23 -42 -70 -62 -70 -33 0 -58 31 -58 70 0 29 6 43
22 54 31 22 45 20 73 -9z"/>
<path d="M8070 4729 c0 -37 -13 -64 -52 -105 -22 -23 -26 -34 -17 -39 8 -5 26
6 50 32 l37 40 35 -35 c21 -21 40 -32 47 -27 8 5 0 19 -25 45 -26 27 -38 49
-42 79 -7 49 -33 58 -33 10z"/>
<path d="M8642 4740 c-28 -27 -28 -51 1 -78 48 -45 147 -20 147 38 0 37 -32
60 -85 60 -28 0 -48 -7 -63 -20z m99 -10 c37 -20 13 -70 -34 -70 -8 0 -25 9
-38 20 l-24 20 24 20 c26 22 43 25 72 10z"/>
<path d="M9360 4700 l0 -60 105 0 c63 0 105 4 105 10 0 6 -37 10 -90 10 l-90
0 0 50 c0 38 -4 50 -15 50 -12 0 -15 -13 -15 -60z"/>
<path d="M9980 4700 c0 -53 -2 -60 -20 -60 -17 0 -20 7 -20 50 l0 50 -70 0
-70 0 0 -105 0 -105 70 0 70 0 0 45 c0 38 3 45 20 45 19 0 20 -7 20 -90 0 -73
3 -90 15 -90 13 0 15 24 15 160 0 136 -2 160 -15 160 -12 0 -15 -13 -15 -60z
m-70 -65 l0 -85 -40 0 -40 0 0 85 0 85 40 0 40 0 0 -85z"/>
<path d="M10190 4700 l0 -60 110 0 c67 0 110 4 110 10 0 6 -38 10 -95 10 l-95
0 0 50 c0 38 -4 50 -15 50 -12 0 -15 -13 -15 -60z"/>
<path d="M10550 4750 c0 -6 38 -10 95 -10 78 0 95 -3 95 -15 0 -12 -17 -15
-95 -15 l-95 0 0 -35 0 -35 115 0 c70 0 115 4 115 10 0 6 -40 10 -100 10 -82
0 -100 3 -100 15 0 12 17 15 95 15 l95 0 0 35 0 35 -110 0 c-67 0 -110 -4
-110 -10z"/>
<path d="M11030 4750 c0 -5 23 -10 50 -10 28 0 50 -3 50 -8 0 -21 -35 -52 -75
-68 -30 -11 -43 -20 -36 -27 12 -12 63 7 102 40 l28 24 38 -30 c21 -17 53 -33
71 -37 43 -9 42 11 -2 26 -43 14 -86 47 -86 66 0 10 13 14 50 14 28 0 50 5 50
10 0 6 -47 10 -120 10 -73 0 -120 -4 -120 -10z"/>
<path d="M11400 4700 l0 -60 110 0 110 0 0 60 0 60 -110 0 -110 0 0 -60z m190
0 l0 -40 -80 0 -80 0 0 40 0 40 80 0 80 0 0 -40z"/>
<path d="M12340 4736 c0 -28 -35 -60 -86 -76 -19 -6 -31 -16 -28 -22 9 -14 52
-1 97 28 l37 24 38 -25 c41 -27 102 -44 102 -27 0 5 -12 13 -27 17 -45 11 -93
53 -93 81 0 17 -5 24 -20 24 -15 0 -20 -7 -20 -24z"/>
<path d="M12730 4735 c-50 -54 -13 -135 62 -135 49 0 88 35 88 80 0 72 -99
109 -150 55z m98 -11 c42 -29 16 -104 -37 -104 -44 0 -66 67 -34 102 20 22 42
23 71 2z"/>
<path d="M13180 4741 c0 -21 -48 -54 -93 -65 -38 -9 -23 -30 16 -22 17 3 45
17 63 31 l33 25 37 -25 c46 -31 82 -41 96 -27 8 8 3 13 -18 18 -46 11 -94 44
-94 65 0 12 -7 19 -20 19 -13 0 -20 -7 -20 -19z"/>
<path d="M5090 4740 c0 -5 18 -10 40 -10 22 0 40 -5 40 -10 0 -23 -31 -69 -62
-94 -28 -22 -30 -26 -14 -32 12 -5 28 4 55 30 l37 37 20 -22 c24 -27 52 -42
64 -34 5 3 -8 23 -30 44 -23 21 -40 47 -40 59 0 18 6 22 35 22 19 0 35 5 35
10 0 6 -37 10 -90 10 -53 0 -90 -4 -90 -10z"/>
<path d="M6099 4724 c-20 -22 -24 -36 -24 -89 0 -53 4 -67 24 -89 47 -50 121
-27 142 43 34 115 -69 213 -142 135z m88 -9 c45 -31 38 -138 -11 -165 -26 -14
-28 -14 -52 13 -31 37 -33 103 -3 141 23 30 36 32 66 11z"/>
<path d="M4740 4635 l0 -105 70 0 70 0 0 105 0 105 -70 0 -70 0 0 -105z m110
0 l0 -85 -40 0 -40 0 0 85 0 85 40 0 40 0 0 -85z"/>
<path d="M5720 4630 l0 -110 70 0 c40 0 70 4 70 10 0 6 -25 10 -55 10 l-55 0
0 40 c0 38 2 40 30 40 17 0 30 5 30 10 0 6 -13 10 -30 10 -28 0 -30 2 -30 40
l0 40 45 0 c25 0 45 5 45 10 0 6 -27 10 -60 10 l-60 0 0 -110z"/>
<path d="M6920 4730 c0 -5 16 -10 35 -10 32 0 35 -2 35 -30 0 -43 -26 -99 -61
-136 -23 -24 -27 -33 -16 -37 15 -6 65 41 85 77 9 18 11 17 25 -10 8 -16 26
-39 40 -52 35 -33 47 -9 14 26 -32 33 -57 91 -57 132 0 28 3 30 35 30 19 0 35
5 35 10 0 6 -35 10 -85 10 -50 0 -85 -4 -85 -10z"/>
<path d="M13440 4635 l0 -106 92 3 c61 2 93 7 95 15 4 10 -15 11 -76 6 l-81
-6 0 97 c0 79 -3 96 -15 96 -12 0 -15 -18 -15 -105z"/>
<path d="M13780 4635 l0 -105 95 0 c57 0 95 4 95 10 0 6 -32 10 -75 10 l-75 0
0 85 0 85 65 0 c37 0 65 4 65 10 0 6 -35 10 -85 10 l-85 0 0 -105z"/>
<path d="M4652 4695 c-28 -36 -46 -116 -37 -173 8 -55 43 -122 63 -122 7 0 12
3 10 8 -53 103 -58 189 -16 265 29 52 15 67 -20 22z"/>
<path d="M8338 4695 c46 -58 51 -173 12 -251 -24 -45 -23 -44 -7 -44 7 0 24
19 38 43 33 59 34 162 1 230 -17 32 -30 47 -44 47 -19 0 -19 0 0 -25z"/>
<path d="M11752 4684 c-51 -35 -12 -94 63 -94 50 0 85 23 85 55 0 32 -35 55
-85 55 -22 0 -51 -7 -63 -16z m99 -14 c26 -15 24 -38 -5 -51 -51 -24 -111 18
-71 47 22 17 49 18 76 4z"/>
<path d="M8985 4645 c-51 -50 -13 -125 62 -125 21 0 46 6 55 14 39 30 40 92 0
122 -29 23 -90 17 -117 -11z m99 -11 c32 -31 10 -94 -32 -94 -29 0 -62 30 -62
55 0 25 33 55 62 55 9 0 24 -7 32 -16z"/>
<path d="M5530 4615 c0 -33 -2 -35 -35 -35 -19 0 -35 -4 -35 -10 0 -5 16 -10
35 -10 33 0 35 -2 35 -35 0 -24 5 -35 15 -35 10 0 15 11 15 35 0 33 2 35 35
35 19 0 35 5 35 10 0 6 -16 10 -35 10 -33 0 -35 2 -35 35 0 24 -5 35 -15 35
-10 0 -15 -11 -15 -35z"/>
<path d="M6410 4610 c0 -6 60 -10 160 -10 100 0 160 4 160 10 0 6 -60 10 -160
10 -100 0 -160 -4 -160 -10z"/>
<path d="M8653 4613 c-75 -5 -85 -23 -13 -23 l50 0 0 -35 c0 -28 4 -35 20 -35
16 0 20 7 20 35 0 30 3 35 23 35 33 0 67 11 67 21 0 9 -37 9 -167 2z"/>
<path d="M13040 4610 c0 -6 60 -10 160 -10 100 0 160 4 160 10 0 6 -60 10
-160 10 -100 0 -160 -4 -160 -10z"/>
<path d="M10500 4600 c0 -6 60 -10 160 -10 100 0 160 4 160 10 0 6 -60 10
-160 10 -100 0 -160 -4 -160 -10z"/>
<path d="M11350 4590 c0 -6 32 -10 75 -10 l75 0 0 -40 c0 -29 4 -40 15 -40 11
0 15 11 15 40 l0 40 70 0 c40 0 70 4 70 10 0 6 -60 10 -160 10 -100 0 -160 -4
-160 -10z"/>
<path d="M9300 4580 c0 -6 60 -10 160 -10 100 0 160 4 160 10 0 6 -60 10 -160
10 -100 0 -160 -4 -160 -10z"/>
<path d="M10140 4580 c0 -5 20 -10 45 -10 l45 0 0 -70 c0 -56 3 -70 15 -70 12
0 15 14 15 70 l0 70 45 0 45 0 0 -70 c0 -56 3 -70 15 -70 12 0 15 14 15 70 l0
70 40 0 c22 0 40 5 40 10 0 6 -60 10 -160 10 -100 0 -160 -4 -160 -10z"/>
<path d="M10990 4580 c0 -6 30 -10 70 -10 l70 0 0 -70 c0 -63 2 -70 20 -70 18
0 20 7 20 70 l0 70 70 0 c40 0 70 4 70 10 0 6 -60 10 -160 10 -100 0 -160 -4
-160 -10z"/>
<path d="M12200 4580 c0 -6 30 -10 70 -10 l70 0 0 -70 c0 -63 2 -70 20 -70 18
0 20 7 20 70 l0 70 70 0 c40 0 70 4 70 10 0 6 -60 10 -160 10 -100 0 -160 -4
-160 -10z"/>
<path d="M5156 4549 c-59 -47 -13 -109 81 -109 85 0 127 31 115 83 -12 47
-146 65 -196 26z m133 -10 c46 -16 43 -53 -5 -69 -68 -23 -143 13 -111 52 22
29 65 35 116 17z"/>
<path d="M6460 4560 c0 -6 38 -10 95 -10 78 0 95 -3 95 -15 0 -12 -17 -15 -95
-15 l-95 0 0 -40 0 -40 115 0 c70 0 115 4 115 10 0 6 -40 10 -100 10 -93 0
-100 1 -100 20 0 19 7 20 95 20 l95 0 0 35 0 35 -110 0 c-67 0 -110 -4 -110
-10z"/>
<path d="M11770 4560 c0 -6 37 -10 90 -10 73 0 90 -3 90 -15 0 -12 -17 -15
-90 -15 l-90 0 0 -40 0 -40 110 0 c67 0 110 4 110 10 0 6 -38 10 -95 10 -88 0
-95 1 -95 20 0 19 7 20 90 20 l90 0 0 35 0 35 -105 0 c-63 0 -105 -4 -105 -10z"/>
<path d="M12780 4539 c0 -21 -10 -40 -31 -61 -22 -23 -27 -34 -19 -42 8 -8 19
-2 41 22 29 32 31 33 49 17 28 -25 47 -8 21 19 -11 11 -23 33 -26 49 -10 38
-35 35 -35 -4z"/>
<path d="M12906 4536 c-4 -19 -20 -48 -37 -64 -19 -18 -26 -32 -20 -36 14 -9
48 10 61 34 10 19 12 18 40 -13 24 -26 31 -30 42 -19 11 11 10 15 -5 23 -21
12 -47 61 -47 89 0 34 -27 23 -34 -14z"/>
<path d="M13090 4505 l0 -65 110 0 110 0 0 65 c0 51 -3 65 -15 65 -9 0 -15 -9
-15 -25 0 -25 -1 -25 -80 -25 -79 0 -80 0 -80 25 0 16 -6 25 -15 25 -12 0 -15
-14 -15 -65z m190 -25 c0 -18 -7 -20 -80 -20 -73 0 -80 2 -80 20 0 18 7 20 80
20 73 0 80 -2 80 -20z"/>
<path d="M7338 4544 c-42 -22 -37 -68 9 -93 28 -14 115 -14 147 1 46 20 46 76
0 96 -35 17 -124 14 -156 -4z m131 -15 c24 -9 31 -16 29 -33 -7 -48 -149 -46
-156 2 -6 37 62 54 127 31z"/>
<path d="M10550 4550 c0 -6 38 -10 95 -10 78 0 95 -3 95 -15 0 -12 -17 -15
-95 -15 l-95 0 0 -35 0 -35 115 0 c70 0 115 4 115 10 0 6 -40 10 -100 10 -82
0 -100 3 -100 15 0 12 17 15 95 15 l95 0 0 35 0 35 -110 0 c-67 0 -110 -4
-110 -10z"/>
<path d="M7690 4495 l0 -55 115 0 c70 0 115 4 115 10 0 6 -40 10 -100 10
l-100 0 0 45 c0 33 -4 45 -15 45 -12 0 -15 -13 -15 -55z"/>
<path d="M8040 4540 c0 -6 38 -10 95 -10 l95 0 0 -50 c0 -38 4 -50 15 -50 12
0 15 13 15 60 l0 60 -110 0 c-67 0 -110 -4 -110 -10z"/>
<path d="M8640 4495 l0 -55 120 0 c73 0 120 4 120 10 0 6 -42 10 -105 10
l-105 0 0 45 c0 33 -4 45 -15 45 -12 0 -15 -13 -15 -55z"/>
<path d="M9350 4490 l0 -50 110 0 c67 0 110 4 110 10 0 6 -37 10 -90 10 l-90
0 0 40 c0 33 -3 40 -20 40 -17 0 -20 -7 -20 -50z"/>
<path d="M11400 4490 l0 -50 110 0 c67 0 110 4 110 10 0 6 -38 10 -95 10 l-95
0 0 40 c0 29 -4 40 -15 40 -11 0 -15 -12 -15 -50z"/>
<path d="M14120 4480 c0 -13 7 -20 20 -20 13 0 20 7 20 20 0 13 -7 20 -20 20
-13 0 -20 -7 -20 -20z"/>
<path d="M904 4171 c-6 -29 -42 -75 -66 -84 -21 -7 -6 -16 40 -23 l42 -7 0 72
c0 74 -6 91 -16 42z"/>
<path d="M0 3970 c0 -16 5 -30 10 -30 17 0 70 30 70 39 0 12 -25 21 -56 21
-20 0 -24 -5 -24 -30z"/>
<path d="M485 3849 c-27 -5 -69 -14 -93 -19 -23 -6 -56 -10 -73 -10 -16 0 -47
-9 -69 -20 -27 -14 -59 -20 -105 -20 -36 0 -83 -6 -105 -12 l-40 -13 0 -871 0
-871 98 4 c273 10 921 55 1272 89 91 8 211 19 267 24 109 9 167 23 195 48 11
9 28 13 46 9 16 -3 34 -1 40 5 8 8 19 6 39 -7 37 -25 48 -26 283 -25 482 0
775 11 833 29 40 13 126 26 151 23 11 -1 35 3 53 9 19 6 59 13 91 15 80 6 193
24 211 33 9 5 43 9 77 10 33 0 81 5 105 9 70 13 82 7 74 -36 -8 -41 -32 -80
-73 -114 -16 -13 -33 -31 -38 -40 -9 -16 -99 -121 -119 -139 -5 -5 -21 -18
-34 -29 -19 -16 -21 -22 -12 -34 7 -8 26 -18 42 -21 37 -8 94 -57 115 -98 11
-20 15 -49 12 -90 l-3 -61 46 -17 c25 -9 76 -17 113 -18 37 -1 77 -5 89 -10
12 -4 45 -9 72 -10 28 -1 95 -8 150 -16 55 -9 118 -17 141 -19 22 -3 61 -8 85
-11 24 -4 98 -9 164 -11 66 -3 131 -9 145 -14 14 -5 100 -12 191 -15 146 -6
167 -5 172 9 9 23 25 19 97 -24 144 -87 176 -101 630 -282 69 -27 199 -75 290
-105 159 -53 230 -85 230 -103 0 -23 -21 -59 -37 -63 -91 -24 506 -2 747 27
20 3 63 8 95 11 33 4 71 8 85 10 25 3 29 23 8 37 -6 3 -47 9 -90 12 -43 3
-114 9 -158 12 -55 4 -80 10 -80 19 0 17 12 25 100 71 41 21 94 51 117 66 23
16 56 35 75 43 38 16 106 71 73 59 -11 -4 -78 -27 -150 -52 -139 -48 -147 -49
-300 -16 -16 4 -43 6 -58 6 -22 -1 -28 3 -25 16 2 9 10 17 18 17 8 0 17 3 21
7 4 7 48 15 87 17 18 1 72 56 72 73 0 19 -10 27 -82 66 -66 36 -225 87 -318
102 -36 6 -99 17 -140 25 -41 8 -145 26 -230 40 -132 22 -230 41 -430 85 -65
14 -425 100 -465 111 -56 15 -179 78 -217 109 -38 32 -34 40 40 87 134 86 225
209 302 412 41 107 95 165 161 175 100 16 127 47 115 134 -4 35 -2 53 9 69 16
23 45 21 45 -3 0 -8 7 -14 15 -14 8 0 15 7 15 15 0 8 -7 15 -15 15 -17 0 -35
30 -35 59 l0 21 -1377 -2 -1378 -3 -8 -40 c-18 -81 -36 -92 -62 -38 -10 21
-28 48 -39 60 l-21 23 -952 0 -953 0 0 481 0 482 -70 -7 c-54 -5 -76 -3 -93 8
-14 10 -27 12 -36 7 -8 -6 -29 -4 -50 3 -53 19 -129 25 -186 15z m3506 -1379
c28 -15 23 -52 -10 -84 -29 -28 -31 -28 -73 -15 -46 15 -73 58 -51 80 23 23
104 34 134 19z m855 -665 c16 -48 17 -65 4 -65 -20 0 -50 41 -50 68 0 57 26
54 46 -3z m25 -18 c-8 -8 -11 -7 -11 4 0 20 13 34 18 19 3 -7 -1 -17 -7 -23z
m-31 -87 c39 -39 39 -57 0 -45 -36 11 -80 85 -50 85 6 0 28 -18 50 -40z m1120
-362 c14 1 48 -6 77 -14 29 -8 65 -14 80 -14 15 1 40 -2 56 -6 22 -5 27 -3 27
11 0 14 3 15 15 5 20 -17 19 -24 -11 -59 -31 -37 -67 -40 -140 -12 -27 10 -95
33 -151 51 -118 37 -135 57 -40 45 34 -4 73 -7 87 -7z m576 -52 c8 -8 14 -19
14 -25 0 -6 5 -11 10 -11 6 0 10 -5 10 -11 0 -6 -9 -8 -20 -4 -11 4 -20 2 -20
-4 0 -14 -37 -14 -45 -1 -4 6 -13 5 -24 -2 -14 -9 -30 -8 -65 2 -25 7 -46 17
-46 21 0 5 -11 9 -25 9 -27 0 -32 12 -12 28 29 24 198 22 223 -2z m-256 -26
c0 -5 -9 -10 -20 -10 -11 0 -20 5 -20 10 0 6 9 10 20 10 11 0 20 -4 20 -10z"/>
<path d="M5730 2852 c0 -5 7 -12 15 -16 8 -3 15 -12 15 -21 0 -8 7 -15 16 -15
12 0 14 -8 8 -45 -5 -37 -3 -45 9 -45 8 0 18 6 21 13 5 10 7 10 12 0 3 -7 15
-13 26 -13 17 0 20 -5 15 -30 -5 -22 -3 -30 8 -30 8 0 15 5 15 10 0 6 7 10 15
10 8 0 15 9 15 20 0 11 -7 20 -15 20 -8 0 -15 9 -15 20 0 11 -4 20 -10 20 -5
0 -10 7 -10 15 0 8 -9 15 -20 15 -14 0 -20 7 -20 24 0 13 -6 28 -12 34 -19 15
-88 26 -88 14z"/>
<path d="M5882 2840 c-18 -29 -15 -40 13 -40 21 0 25 5 25 30 0 35 -19 40 -38
10z"/>
<path d="M5951 2848 c8 -8 22 -17 32 -21 14 -5 18 -3 15 11 -2 10 -14 18 -32
20 -25 3 -27 2 -15 -10z"/>
<path d="M6988 2848 c12 -6 22 -17 22 -24 0 -15 46 -64 59 -64 8 0 49 -59 60
-85 2 -5 13 -22 23 -37 11 -16 16 -28 11 -29 -4 0 3 -4 15 -10 21 -8 23 -13
17 -52 -4 -30 -3 -38 4 -27 8 12 11 7 12 -20 3 -61 13 -93 40 -132 11 -14 19
-33 19 -41 0 -8 10 -17 23 -21 12 -3 37 -19 54 -35 24 -22 47 -31 88 -36 30
-4 55 -12 55 -17 0 -5 32 -8 74 -7 40 1 77 -1 83 -4 5 -3 57 -7 114 -7 57 -1
133 -6 169 -10 60 -9 198 -20 280 -24 19 -1 49 -6 65 -12 17 -6 57 -19 90 -29
33 -10 74 -24 92 -31 17 -8 53 -14 80 -14 27 0 54 -5 60 -11 8 -8 17 -8 30 -1
13 8 22 7 33 -2 17 -15 156 -39 171 -30 5 3 15 1 22 -4 12 -10 71 -22 131 -27
45 -4 144 -24 193 -40 23 -8 58 -11 78 -8 21 3 41 1 50 -7 10 -8 15 -9 15 -1
0 12 58 4 77 -11 7 -5 16 -8 20 -5 4 2 46 -2 93 -10 90 -15 127 -20 200 -27
25 -2 59 -9 75 -16 17 -7 43 -12 59 -11 16 2 32 -2 36 -9 4 -6 40 -13 81 -16
40 -3 78 -9 85 -15 6 -5 33 -12 60 -16 27 -3 66 -15 87 -26 29 -15 49 -18 85
-13 40 5 52 3 70 -15 17 -15 38 -21 82 -23 33 -2 63 -6 67 -10 3 -3 16 -6 28
-6 30 0 75 -23 75 -39 0 -9 -8 -11 -25 -7 -29 7 -31 0 -9 -29 14 -19 16 -19
25 -2 12 21 39 23 39 2 0 -8 5 -15 10 -15 6 0 10 5 10 11 0 18 30 41 45 35 21
-8 19 -23 -5 -36 -34 -18 -24 -33 19 -27 22 3 44 0 50 -6 8 -8 11 -5 11 11 0
13 6 22 15 22 12 0 15 -9 12 -35 -4 -35 6 -48 17 -20 3 8 17 15 31 15 33 0 32
5 -41 178 -8 18 -14 38 -14 45 0 7 -7 25 -15 40 -8 16 -26 59 -39 95 -14 37
-54 144 -91 237 -63 163 -152 441 -190 593 l-19 72 -1735 -1 c-1248 0 -1730
-4 -1713 -11z"/>
<path d="M6120 2790 c0 -5 4 -10 9 -10 6 0 13 5 16 10 3 6 -1 10 -9 10 -9 0
-16 -4 -16 -10z"/>
<path d="M5940 2695 c0 -8 5 -15 10 -15 6 0 10 7 10 15 0 8 -4 15 -10 15 -5 0
-10 -7 -10 -15z"/>
<path d="M12420 2699 c0 -5 9 -9 20 -9 11 0 20 2 20 4 0 2 -9 6 -20 9 -11 3
-20 1 -20 -4z"/>
<path d="M2640 2082 c-14 -2 -29 -8 -34 -13 -6 -5 -25 -9 -44 -9 -21 0 -40 -7
-47 -17 -12 -15 -16 -16 -39 -4 -23 13 -32 12 -88 -11 -129 -51 -154 -58 -230
-60 -16 0 -29 -6 -29 -12 -1 -6 -2 -18 -3 -26 -1 -19 -36 -26 -47 -8 -8 10
-11 10 -20 -4 -5 -10 -17 -18 -24 -18 -9 0 -15 -9 -15 -21 0 -19 -4 -21 -35
-16 -25 4 -35 2 -35 -7 0 -14 -58 -46 -83 -46 -8 0 -17 -7 -21 -15 -3 -8 -10
-15 -16 -15 -5 0 -10 7 -10 15 0 8 -5 15 -11 15 -6 0 -17 -7 -25 -15 -9 -8
-29 -15 -46 -15 -23 0 -29 -4 -24 -15 3 -8 2 -14 -2 -14 -20 3 -32 -2 -32 -15
0 -8 -4 -17 -8 -20 -4 -2 -8 7 -7 21 0 14 -6 28 -12 30 -9 3 -13 -6 -13 -27 0
-28 -3 -32 -21 -27 -32 8 -79 -3 -79 -19 0 -10 -13 -14 -40 -14 -32 0 -46 -6
-71 -32 -25 -26 -32 -30 -39 -18 -8 12 -10 10 -10 -7 0 -12 -4 -25 -10 -28 -5
-3 -10 1 -10 9 0 18 -25 22 -35 6 -3 -5 -26 -10 -51 -10 -24 0 -44 -4 -44 -10
0 -5 5 -10 10 -10 6 0 10 -9 10 -21 0 -16 -4 -19 -20 -14 -29 9 -80 -4 -80
-21 0 -17 3 -16 -38 -5 -20 6 -32 6 -32 0 0 -5 -7 -9 -15 -9 -8 0 -15 5 -15
11 0 12 -43 1 -48 -12 -2 -5 -15 -9 -28 -9 -13 0 -24 -5 -24 -11 0 -7 -10 -9
-27 -4 -26 6 -27 5 -9 -8 11 -8 16 -19 12 -26 -6 -9 -13 -6 -26 9 -23 27 -60
27 -60 0 0 -11 -5 -20 -11 -20 -7 0 -9 10 -7 25 3 16 1 25 -7 25 -19 0 -75
-30 -75 -41 0 -14 -32 -10 -44 6 -14 19 -53 9 -61 -16 -7 -22 -45 -26 -45 -4
0 23 -24 18 -48 -10 -18 -21 -31 -25 -77 -25 -30 0 -55 -4 -55 -10 0 -5 -7
-10 -15 -10 -8 0 -15 7 -15 16 0 11 -5 14 -16 10 -9 -3 -23 -6 -31 -6 -12 0
-14 -7 -9 -35 8 -38 0 -45 -20 -17 -12 16 -14 16 -36 -4 -37 -34 -46 -36 -73
-18 -15 10 -25 12 -25 5 0 -6 -8 -11 -17 -11 -15 0 -16 -2 -3 -10 12 -8 9 -10
-12 -10 -20 0 -27 -6 -30 -22 -2 -18 -13 -25 -48 -34 -25 -6 -45 -15 -45 -20
0 -5 -3 -8 -7 -6 -5 1 -8 -34 -8 -78 0 -77 1 -80 23 -80 13 0 28 -5 35 -12 9
-9 18 -9 34 -1 26 12 156 15 163 3 3 -4 31 -6 62 -3 107 7 157 5 161 -6 4 -12
42 -15 42 -3 0 10 84 12 90 2 3 -5 31 -5 63 -1 43 6 60 4 68 -6 13 -15 99 -18
99 -3 0 18 40 11 40 -7 1 -17 1 -17 14 -1 12 16 15 16 49 0 34 -16 37 -20 35
-56 -3 -41 -28 -65 -28 -27 0 27 -16 27 -23 1 -6 -24 -57 -29 -57 -5 0 8 -7
15 -15 15 -8 0 -15 -8 -15 -19 0 -28 -19 -38 -90 -45 -36 -4 -90 -11 -120 -17
-30 -5 -77 -11 -105 -13 -51 -4 -152 -14 -392 -37 l-133 -13 0 -177 0 -176 28
-1 c15 0 42 -4 61 -8 26 -5 36 -3 43 10 11 19 39 21 56 4 9 -9 12 -9 12 0 0 7
7 12 15 12 8 0 15 -3 15 -8 0 -4 19 -7 43 -7 23 0 52 -4 63 -8 14 -5 27 -3 35
5 14 14 109 19 109 6 0 -3 15 -1 34 4 25 8 51 8 90 0 45 -9 60 -8 85 4 29 14
34 14 77 -7 27 -14 48 -19 52 -14 4 6 34 10 67 10 55 0 60 -2 63 -22 3 -18 10
-23 34 -23 23 0 29 4 24 15 -3 8 -1 15 4 15 6 0 10 -5 10 -11 0 -8 15 -10 45
-7 34 4 45 2 45 -8 0 -8 -4 -14 -10 -14 -14 0 -13 -27 1 -36 7 -4 16 1 21 10
5 9 20 16 33 16 13 0 31 7 39 15 10 11 22 13 33 8 21 -9 234 -9 347 1 56 4 83
11 91 23 12 16 40 9 30 -8 -4 -5 1 -9 9 -9 9 0 16 5 16 10 0 6 5 10 10 10 6 0
9 -5 8 -12 -2 -6 5 -14 15 -16 12 -2 17 3 17 17 0 12 5 21 10 21 6 0 10 -7 10
-15 0 -20 44 -20 64 1 9 8 20 12 26 9 5 -3 10 1 10 9 0 9 7 16 15 16 8 0 15
-4 15 -10 0 -5 -4 -10 -10 -10 -5 0 -10 -7 -10 -15 0 -18 46 -21 52 -2 3 8 29
12 78 13 44 1 76 6 78 13 5 14 42 15 42 1 0 -13 47 -13 52 0 2 6 21 11 43 12
22 1 34 3 27 6 -6 2 -12 12 -12 23 0 15 8 19 33 20 17 1 51 3 74 3 23 1 48 8
57 15 9 7 23 10 32 7 9 -4 28 1 41 10 14 9 34 13 46 10 11 -3 35 1 51 8 17 7
58 21 91 32 80 25 119 64 111 114 -4 28 -1 41 19 64 14 16 26 36 26 45 2 25 4
34 16 61 6 14 13 46 17 72 4 26 13 49 21 52 8 3 15 12 15 20 0 8 7 21 15 30
14 14 13 17 -9 31 -13 9 -51 19 -83 22 -32 3 -75 14 -96 25 -50 25 -62 57 -48
129 6 30 11 71 11 90 0 34 12 55 74 134 30 38 32 46 56 230 5 39 13 86 18 105
6 19 12 77 14 128 l3 94 -44 15 c-24 8 -55 13 -68 10 -14 -2 -39 -2 -56 2 -18
4 -43 5 -57 3z"/>
<path d="M1050 1570 c0 -24 15 -27 24 -4 9 22 8 24 -9 24 -8 0 -15 -9 -15 -20z"/>
<path d="M1120 1540 c0 -5 5 -10 10 -10 6 0 10 5 10 10 0 6 -4 10 -10 10 -5 0
-10 -4 -10 -10z"/>
<path d="M3032 1068 c3 -7 18 -19 34 -27 33 -16 48 -30 52 -51 2 -7 11 -25 21
-39 10 -14 20 -35 22 -46 5 -22 45 -33 61 -17 17 17 38 2 38 -25 0 -24 2 -25
45 -19 29 5 45 4 45 -3 0 -6 14 -11 30 -11 25 0 30 4 30 25 l0 24 36 -24 c47
-32 54 -31 54 6 0 30 2 31 30 26 35 -7 35 -8 15 29 -8 16 -15 22 -15 14 -1
-12 -3 -11 -11 3 -5 9 -8 21 -4 26 8 13 -65 36 -175 55 -52 10 -122 22 -155
27 -33 6 -77 17 -98 25 -46 17 -60 18 -55 2z m138 -78 c0 -5 -7 -10 -15 -10
-8 0 -15 5 -15 10 0 6 7 10 15 10 8 0 15 -4 15 -10z"/>
<path d="M12115 740 c3 -5 10 -10 16 -10 5 0 9 5 9 10 0 6 -7 10 -16 10 -8 0
-12 -4 -9 -10z"/>
<path d="M12722 597 c-6 -7 -9 -23 -6 -35 5 -17 11 -20 35 -15 18 3 29 1 29
-6 0 -6 9 -11 20 -11 11 0 20 5 20 11 0 6 -7 9 -15 5 -15 -5 -19 5 -15 33 4
28 -49 42 -68 18z"/>
<path d="M12839 563 c9 -35 36 -42 44 -11 7 24 -6 38 -35 38 -13 0 -15 -6 -9
-27z"/>
<path d="M12590 570 c0 -5 7 -10 15 -10 8 0 15 5 15 10 0 6 -7 10 -15 10 -8 0
-15 -4 -15 -10z"/>
<path d="M13490 360 c0 -5 9 -10 20 -10 11 0 20 5 20 10 0 6 -9 10 -20 10 -11
0 -20 -4 -20 -10z"/>
<path d="M14937 133 c-14 -13 -6 -23 18 -23 16 0 25 6 25 15 0 15 -31 21 -43
8z"/>
<path d="M15467 83 c-8 -8 -9 -43 -1 -43 10 0 34 28 34 39 0 12 -23 15 -33 4z"/>
<path d="M13905 60 c-3 -5 -1 -10 4 -10 6 0 11 5 11 10 0 6 -2 10 -4 10 -3 0
-8 -4 -11 -10z"/>
<path d="M13760 50 c0 -5 5 -10 10 -10 6 0 10 5 10 10 0 6 -4 10 -10 10 -5 0
-10 -4 -10 -10z"/>
<path d="M14010 50 c0 -5 7 -10 15 -10 8 0 15 5 15 10 0 6 -7 10 -15 10 -8 0
-15 -4 -15 -10z"/>
<path d="M14390 25 c0 -8 5 -15 10 -15 6 0 10 7 10 15 0 8 -4 15 -10 15 -5 0
-10 -7 -10 -15z"/>
<path d="M14870 20 c0 -13 7 -20 19 -20 14 0 18 5 14 20 -7 26 -33 26 -33 0z"/>
</g>
</svg>
