<?xml version="1.0" standalone="no"?>
<!DOCTYPE svg PUBLIC "-//W3C//DTD SVG 20010904//EN"
 "http://www.w3.org/TR/2001/REC-SVG-20010904/DTD/svg10.dtd">
<svg version="1.0" xmlns="http://www.w3.org/2000/svg"
 width="1920.000000pt" height="1080.000000pt" viewBox="0 0 1920.000000 1080.000000"
 preserveAspectRatio="xMidYMid meet">

<g transform="translate(0.000000,1080.000000) scale(0.100000,-0.100000)"
fill="#000000" stroke="none">
<path d="M0 5400 l0 -5400 9600 0 9600 0 0 5400 0 5400 -520 0 c-340 0 -520
-3 -520 -10 0 -5 7 -10 15 -10 8 0 15 -7 15 -15 0 -8 -7 -15 -15 -15 -8 0 -15
-7 -15 -15 0 -8 7 -15 15 -15 8 0 15 -8 15 -17 0 -10 3 -28 6 -40 5 -19 2 -23
-15 -23 -14 0 -21 -6 -21 -19 0 -20 -26 -31 -77 -31 -22 0 -33 -5 -33 -15 0
-8 -16 -18 -36 -24 -40 -11 -94 -4 -94 11 0 6 -11 7 -24 4 -15 -4 -26 -1 -29
7 -4 8 -8 8 -14 2 -4 -5 -15 -11 -24 -13 -21 -3 -50 56 -42 86 6 25 -9 28 -53
12 -21 -9 -31 -8 -42 4 -13 13 -17 12 -33 -7 -18 -22 -18 -22 -19 -2 0 18 -5
20 -35 17 -21 -3 -35 -10 -35 -18 0 -8 -10 -14 -21 -14 -12 0 -27 -7 -34 -16
-8 -12 -31 -18 -78 -20 -58 -3 -67 -1 -72 16 -7 21 -55 29 -55 10 0 -5 5 -10
10 -10 6 0 10 -4 10 -9 0 -12 -58 -25 -97 -22 -19 2 -33 -2 -33 -9 0 -6 -10
-10 -22 -9 -49 4 -58 0 -58 -30 0 -37 10 -62 21 -55 14 8 10 -60 -5 -81 -7
-11 -16 -37 -20 -57 -4 -21 -11 -38 -16 -38 -6 0 -10 -7 -10 -15 0 -8 -6 -15
-14 -15 -14 0 -56 -102 -56 -137 0 -11 -22 -42 -50 -70 -38 -39 -59 -52 -90
-57 -23 -3 -46 -3 -52 0 -6 4 -16 0 -23 -10 -9 -12 -30 -16 -86 -18 -41 -1
-78 -5 -84 -8 -52 -36 -305 -43 -305 -8 0 5 -4 6 -10 3 -6 -3 -10 5 -10 18 0
20 -6 26 -36 32 -24 4 -38 13 -41 26 -3 10 -8 19 -12 19 -14 0 -71 53 -71 66
0 8 -3 14 -8 14 -4 0 -12 10 -17 23 -6 12 -18 21 -28 21 -21 -2 -22 4 -1 27
14 16 14 22 3 48 -8 18 -21 31 -31 31 -22 0 -23 26 -3 46 8 9 15 29 15 45 0
24 -4 29 -25 29 -14 0 -28 6 -31 14 -4 10 -17 12 -46 8 -31 -4 -43 -1 -50 12
-5 9 -17 16 -27 16 -11 0 -21 7 -25 15 -7 20 -40 19 -61 -2 -14 -14 -18 -14
-26 -2 -8 12 -12 11 -23 -3 -7 -10 -18 -18 -24 -18 -5 0 -13 -11 -16 -25 -4
-15 -17 -30 -31 -35 -14 -5 -25 -16 -25 -24 0 -12 -11 -14 -50 -11 -39 3 -50
0 -54 -13 -3 -10 -31 -28 -61 -41 -36 -16 -55 -30 -54 -40 2 -29 -1 -36 -10
-22 -7 11 -11 5 -16 -22 -8 -39 -25 -51 -25 -17 0 33 -25 23 -39 -15 -7 -19
-16 -35 -21 -35 -5 0 -23 -13 -40 -30 -17 -16 -37 -30 -45 -30 -9 0 -17 -15
-21 -40 -6 -36 -10 -40 -34 -40 -23 0 -30 -5 -35 -30 -4 -16 -13 -30 -21 -30
-7 0 -21 -12 -31 -27 -24 -39 -52 -62 -82 -70 -36 -9 -70 -35 -71 -54 0 -9 -7
-19 -15 -23 -8 -3 -20 -17 -25 -31 -5 -14 -16 -25 -25 -25 -8 0 -15 -4 -15
-10 0 -5 -7 -10 -15 -10 -8 0 -15 -6 -15 -13 0 -7 -9 -19 -20 -27 -21 -15 -27
-40 -9 -40 6 0 3 -8 -7 -17 -11 -11 -29 -16 -55 -14 l-38 2 6 -38 c4 -21 12
-44 20 -51 7 -7 13 -20 13 -27 0 -8 6 -18 14 -22 19 -11 36 -48 36 -77 0 -14
5 -26 10 -26 6 0 10 -8 10 -18 0 -10 5 -23 12 -30 12 -12 18 -43 21 -107 2
-37 0 -40 -28 -45 -40 -7 -45 -39 -10 -74 24 -24 24 -26 6 -26 -32 0 -35 -19
-7 -45 14 -13 26 -31 26 -40 0 -10 10 -15 29 -15 17 0 33 -5 36 -10 4 -7 12
-7 24 0 12 6 20 25 24 57 3 26 10 49 16 51 16 5 14 22 -3 22 -14 0 -29 37 -20
52 8 12 32 10 37 -4 5 -13 19 -1 31 27 3 6 9 3 15 -5 8 -12 13 -12 23 -2 9 9
9 12 -5 12 -9 0 -17 7 -17 15 0 8 7 15 15 15 8 0 15 -5 15 -11 0 -5 4 -8 10
-4 5 3 6 13 3 21 -3 9 3 21 16 30 11 8 21 24 21 35 0 10 16 34 36 53 21 20 34
41 32 52 -5 28 36 30 72 4 33 -23 78 -21 101 6 6 8 17 14 23 14 15 1 52 32 58
50 5 15 88 24 88 9 0 -4 11 -10 25 -13 16 -4 25 -13 25 -27 0 -28 30 -71 46
-65 7 3 23 -11 36 -30 14 -21 47 -46 85 -66 35 -17 65 -39 68 -49 4 -12 15
-16 37 -15 27 1 34 -5 52 -36 11 -23 27 -38 38 -38 10 0 18 -5 18 -11 0 -8 4
-8 13 -1 14 12 57 5 57 -9 0 -5 -14 -12 -30 -15 -41 -9 -41 -41 0 -56 25 -8
28 -13 19 -24 -6 -8 -20 -14 -30 -14 -11 0 -19 -7 -19 -15 0 -9 10 -15 26 -15
19 0 25 4 20 15 -7 19 5 19 30 0 10 -8 39 -15 64 -15 32 0 50 -6 62 -19 10
-12 24 -18 36 -14 17 4 21 -2 27 -38 4 -24 14 -49 21 -57 19 -19 17 -29 -6
-35 -12 -3 -20 -14 -20 -26 0 -12 -6 -21 -14 -21 -15 0 -26 -21 -26 -51 0 -10
-4 -19 -9 -19 -5 0 -12 -18 -16 -40 -5 -30 -11 -40 -26 -40 -10 0 -19 7 -19
15 0 9 -9 15 -21 15 -19 0 -21 4 -15 40 7 46 -9 80 -37 80 -29 0 -47 -25 -47
-64 0 -25 -4 -36 -15 -36 -11 0 -15 12 -15 45 0 25 -2 45 -5 45 -13 0 -43 -37
-50 -60 -4 -14 -15 -32 -24 -40 -9 -8 -21 -24 -27 -35 -6 -11 -24 -22 -40 -23
-15 -2 -38 -15 -51 -28 -12 -13 -26 -24 -31 -24 -6 0 -12 -7 -16 -15 -5 -13
39 -15 353 -15 278 0 361 3 365 13 5 10 7 10 12 0 4 -10 186 -13 860 -13 l854
0 0 -2347 c-1 -2045 -3 -2350 -15 -2367 -13 -17 -13 -22 0 -42 9 -14 14 -44
14 -76 -1 -29 -4 -44 -6 -32 -3 17 -11 21 -50 21 -40 0 -48 -4 -64 -31 -25
-41 -21 -81 7 -81 12 -1 42 -14 68 -30 l46 -29 0 -308 0 -308 -250 0 -250 0 0
-47 c0 -27 5 -109 12 -185 9 -110 9 -144 -1 -176 -11 -31 -11 -44 -1 -62 9
-16 15 -109 21 -279 4 -141 11 -296 14 -346 4 -53 2 -101 -4 -116 -12 -32
-109 -82 -158 -80 -24 0 -37 -6 -49 -24 -14 -21 -81 -51 -92 -41 -2 2 4 76 13
165 20 189 19 771 -1 805 -18 30 -24 6 -35 -131 -15 -195 -27 -294 -54 -453
-14 -80 -30 -174 -35 -210 -6 -36 -14 -76 -20 -90 -5 -14 -14 -50 -20 -80 -17
-85 -39 -122 -90 -148 -25 -14 -70 -39 -100 -57 -99 -59 -200 -106 -219 -103
-17 3 -15 15 34 158 29 85 58 169 65 185 13 32 39 132 40 153 0 6 -9 12 -20
12 -19 0 -90 -92 -104 -136 -3 -11 -15 -30 -25 -41 -10 -11 -43 -66 -73 -123
-29 -57 -65 -112 -80 -123 -26 -19 -26 -19 -47 2 -11 11 -21 24 -21 29 -1 4
-9 25 -20 47 -11 22 -19 47 -20 56 0 8 -9 25 -20 37 -11 12 -20 27 -20 35 0 7
-7 22 -15 33 -8 10 -15 25 -15 33 0 16 -60 144 -70 151 -5 3 -26 45 -49 94
-23 49 -50 98 -62 110 -26 26 -111 161 -127 201 -31 77 -112 128 -112 72 0
-27 104 -359 124 -397 16 -28 83 -226 116 -340 12 -41 27 -81 34 -89 15 -19
13 -148 -2 -163 -7 -7 -12 -20 -12 -30 0 -10 -4 -18 -8 -18 -9 0 -156 117
-212 168 -19 18 -38 32 -42 32 -4 0 -38 27 -76 60 -39 33 -74 60 -79 60 -5 0
-25 14 -46 31 -47 38 -105 61 -275 105 -74 18 -138 36 -142 39 -5 3 -11 24
-15 48 -9 60 -15 77 -26 77 -5 0 -9 -10 -9 -22 0 -43 -12 -68 -35 -74 -23 -6
-210 38 -248 58 -46 23 -54 10 150 248 97 112 215 242 292 319 41 41 69 77 63
79 -40 13 -378 -329 -575 -582 -34 -44 -54 -45 -180 -12 -51 14 -146 37 -212
51 -126 28 -175 47 -175 68 0 7 9 30 21 51 35 67 17 77 -25 14 -21 -32 -47
-60 -58 -64 -29 -9 -146 17 -164 37 -14 15 -10 23 51 90 36 41 70 82 76 91 22
39 -20 14 -121 -73 -102 -89 -105 -91 -146 -85 -52 7 -91 24 -99 43 -3 8 6 28
20 45 14 16 25 34 25 40 0 11 -3 9 -80 -50 -24 -17 -50 -32 -58 -32 -15 0
-318 65 -355 76 -9 3 -30 17 -47 30 -27 23 -31 24 -55 11 -28 -14 -66 -10
-270 27 -79 15 -115 37 -115 70 0 17 -40 52 -67 61 -13 3 -23 11 -23 16 0 6
-4 8 -9 5 -5 -3 -6 -26 -4 -50 5 -42 4 -44 -24 -50 -17 -4 -72 0 -124 8 -52 8
-137 19 -189 26 -199 23 -223 29 -270 67 -25 19 -103 80 -175 134 -71 54 -186
142 -255 194 -203 156 -306 225 -339 225 -27 0 -28 -1 -18 -25 7 -14 19 -25
27 -25 18 0 332 -242 401 -309 9 -9 57 -50 107 -91 51 -41 92 -80 92 -87 0
-25 -51 -33 -208 -33 -146 0 -157 1 -179 22 l-23 21 -22 -20 c-20 -19 -44 -23
-173 -32 -82 -6 -205 -19 -272 -28 -101 -14 -124 -15 -137 -3 -15 11 -15 15
-1 36 22 35 19 39 -31 41 -41 2 -47 -1 -62 -29 -37 -69 -69 -95 -144 -118
-123 -37 -311 -101 -348 -117 -19 -9 -91 -42 -159 -75 -71 -33 -132 -56 -142
-53 -12 4 -20 24 -28 67 -12 68 -14 73 -32 63 -8 -6 -10 -30 -6 -85 7 -92 0
-105 -62 -119 -25 -5 -48 -16 -52 -23 -13 -24 -55 -65 -85 -84 -41 -26 -111
-81 -166 -131 -53 -48 -63 -51 -97 -24 -38 29 -31 70 24 138 64 81 72 91 137
165 32 36 99 116 149 179 75 92 97 113 115 111 18 -2 25 3 30 23 4 15 2 36 -3
47 -9 20 -15 16 -99 -59 -49 -45 -154 -147 -233 -227 -80 -80 -150 -146 -158
-146 -14 0 -28 26 -37 73 -7 32 -28 35 -56 7 -11 -11 -20 -19 -20 -18 -9 80
-6 360 5 478 15 153 35 424 35 468 0 17 -6 22 -25 22 l-25 0 6 83 c3 45 12
159 20 252 15 183 17 231 9 223 -9 -9 -37 -290 -42 -425 -4 -118 -7 -132 -24
-136 -16 -4 -19 -15 -19 -65 0 -70 -26 -448 -40 -577 -5 -49 -12 -126 -16
-170 -3 -44 -10 -84 -14 -90 -5 -5 -11 -65 -15 -132 -4 -68 -11 -123 -16 -123
-5 0 -9 -22 -9 -49 0 -31 -5 -53 -15 -61 -9 -7 -14 -22 -13 -33 2 -11 -3 -22
-11 -25 -12 -4 -13 10 -8 83 6 86 6 88 -19 108 -29 22 -57 81 -68 142 -4 22
-14 58 -21 80 -7 22 -23 74 -35 115 -34 114 -71 221 -91 263 -10 21 -20 52
-24 70 -3 18 -12 48 -20 67 -8 19 -38 100 -69 180 -74 198 -84 220 -100 220
-7 0 -19 15 -26 33 -8 17 -50 106 -95 197 -243 488 -525 898 -1078 1567 -86
104 -169 188 -164 166 3 -13 1 -26 -4 -29 -16 -10 -51 -92 -44 -104 3 -5 12
-10 19 -10 14 0 96 -70 96 -82 0 -4 30 -37 68 -75 108 -109 172 -181 172 -192
0 -5 15 -27 34 -47 19 -21 33 -42 30 -46 -9 -14 -34 -9 -34 7 0 8 -4 15 -10
15 -5 0 -10 -6 -10 -14 0 -8 5 -18 10 -21 6 -3 10 -17 10 -30 0 -13 8 -30 18
-37 15 -10 18 -28 19 -90 1 -60 -1 -78 -12 -78 -28 0 -26 -21 4 -49 30 -28 44
-81 21 -81 -18 0 -10 -29 10 -35 11 -3 20 -12 21 -18 0 -7 2 -29 5 -49 2 -20
1 -39 -4 -42 -4 -2 -26 14 -48 36 -21 22 -66 61 -99 87 -33 25 -64 49 -70 53
-5 5 -52 40 -104 79 -52 39 -101 77 -108 85 -21 21 -43 17 -43 -7 0 -11 -7
-34 -17 -49 -15 -27 -15 -30 7 -76 12 -27 23 -59 25 -71 2 -24 -13 -26 -31 -4
-6 8 -16 11 -22 7 -16 -10 -15 -43 1 -49 8 -3 6 -10 -8 -21 l-20 -16 20 -15
c12 -9 30 -14 43 -10 12 3 22 1 22 -5 0 -5 -7 -10 -15 -10 -8 0 -15 -7 -15
-15 0 -8 6 -15 13 -15 7 0 21 -13 30 -29 10 -17 26 -33 37 -36 11 -4 27 -20
36 -37 15 -29 15 -30 -8 -23 -13 4 -41 20 -63 35 -22 15 -73 44 -113 64 -39
20 -96 52 -126 71 -47 30 -221 122 -380 202 -58 29 -69 24 -27 -12 26 -24 29
-32 26 -74 -2 -25 -7 -55 -11 -65 -9 -23 18 -46 53 -46 29 0 30 14 2 34 -18
12 -20 20 -14 55 4 23 11 44 17 47 13 8 65 -31 112 -83 31 -35 35 -44 22 -49
-19 -7 -22 -64 -4 -64 6 0 9 -2 7 -5 -3 -2 -19 -1 -37 4 -40 12 -72 4 -72 -18
0 -12 17 -22 63 -35 34 -10 82 -27 107 -37 l45 -20 -65 6 c-36 4 -77 9 -92 12
-45 9 -36 -23 10 -35 37 -10 164 -62 215 -89 36 -19 54 -12 62 27 5 24 10 29
20 20 20 -16 25 -48 9 -61 -8 -6 -14 -16 -14 -22 0 -8 3 -8 11 0 16 16 39 5
39 -17 0 -13 9 -20 27 -22 24 -3 31 -13 54 -73 33 -84 35 -95 10 -88 -13 3
-20 -2 -24 -19 -10 -35 -9 -38 13 -38 11 0 20 -7 20 -15 0 -9 -9 -15 -25 -15
-18 0 -25 5 -25 20 0 13 -7 20 -20 20 -11 0 -20 -2 -20 -4 0 -10 48 -56 59
-56 6 0 11 -13 11 -30 0 -20 -5 -30 -15 -30 -9 0 -15 -9 -15 -24 0 -17 7 -26
25 -30 14 -4 25 -11 25 -16 0 -6 7 -10 15 -10 8 0 15 -7 15 -15 0 -8 7 -15 15
-15 8 0 15 -6 15 -14 0 -8 19 -31 42 -50 l42 -36 -77 0 c-67 0 -99 8 -269 65
-106 35 -218 71 -248 79 -30 8 -98 26 -150 40 -230 63 -678 151 -965 190 -458
62 -1146 140 -1550 176 -300 26 -500 47 -740 75 -71 9 -153 18 -180 21 -45 6
-59 2 -124 -31 -40 -20 -70 -40 -65 -44 14 -13 295 -47 714 -86 146 -14 282
-28 304 -31 47 -7 67 -10 177 -22 47 -5 90 -11 95 -14 5 -3 68 -11 139 -18
168 -15 484 -58 498 -67 7 -4 48 -10 91 -14 61 -4 82 -10 93 -25 10 -13 27
-19 61 -20 26 0 57 -4 69 -8 22 -7 22 -9 8 -36 -17 -33 -8 -40 52 -40 23 0 33
-4 31 -12 -6 -17 -46 -22 -62 -9 -10 8 -18 6 -31 -9 -30 -33 -6 -44 98 -46
156 -2 155 -2 162 -25 5 -14 0 -28 -15 -44 -12 -13 -19 -28 -15 -34 4 -8 -182
-11 -639 -11 l-646 0 0 -32 c-1 -53 -35 -170 -59 -196 -13 -14 -21 -37 -21
-58 0 -28 -5 -36 -26 -44 -26 -10 -25 -30 2 -30 26 0 15 -31 -16 -41 -46 -17
-46 -41 -1 -108 23 -33 41 -62 41 -65 0 -4 -15 -6 -33 -6 -18 0 -37 -4 -42 -9
-6 -5 -57 -18 -115 -30 -58 -12 -132 -28 -165 -36 -170 -38 -432 -93 -580
-120 -49 -9 -110 -20 -135 -25 -25 -6 -92 -17 -148 -25 -143 -20 -218 -46
-297 -99 -36 -25 -69 -46 -72 -46 -5 0 -165 -103 -235 -151 -15 -11 -31 -19
-36 -19 -4 0 -37 -21 -72 -47 -125 -94 -206 -146 -269 -175 -36 -17 -80 -41
-98 -55 -38 -29 -111 -53 -163 -53 -24 0 -43 -7 -55 -20 -24 -27 -118 -54
-153 -45 -15 4 -58 11 -97 15 -89 11 -138 -3 -153 -42 -7 -20 -17 -28 -34 -28
-39 0 -51 14 -43 49 6 28 4 31 -19 31 -14 0 -26 4 -26 9 0 17 55 89 127 164
41 43 73 81 70 84 -21 21 -164 -118 -216 -210 -18 -32 -38 -56 -45 -54 -20 7
-11 117 23 267 17 80 38 179 46 220 53 275 95 483 169 835 20 94 36 176 36
183 0 9 -25 12 -90 12 l-90 0 0 29 c0 15 5 42 11 60 10 29 9 34 -15 56 -14 13
-26 32 -26 41 0 14 -3 14 -16 3 -9 -7 -13 -21 -10 -34 4 -16 -5 -33 -34 -64
-22 -23 -40 -48 -40 -56 0 -17 16 -20 25 -4 4 6 17 14 29 19 25 9 58 -14 49
-36 -4 -11 -29 -14 -108 -14 -97 0 -139 11 -100 27 10 3 21 0 25 -7 11 -18 40
-5 40 18 0 10 16 32 35 49 35 32 37 43 26 156 -2 19 -31 4 -37 -20 -4 -16 -10
-32 -14 -38 -5 -5 -11 -27 -15 -47 -8 -42 -8 -42 -35 -28 -21 11 -19 13 -77
-62 l-36 -48 -98 0 -99 0 0 93 c1 79 3 89 14 75 7 -10 21 -18 30 -18 10 0 16
-8 16 -25 0 -34 28 -32 36 3 4 15 11 32 16 39 6 7 5 19 -1 32 -17 30 -13 43 9
36 16 -5 20 -2 20 14 0 14 -6 21 -19 21 -11 0 -21 9 -24 21 -5 18 -11 20 -32
15 -22 -6 -28 -3 -32 14 -3 11 -12 20 -19 20 -11 0 -14 18 -14 74 0 82 13 106
55 106 31 0 39 14 38 72 -1 44 1 47 19 37 15 -8 22 -7 32 7 7 10 11 25 9 35
-3 10 5 32 18 50 21 30 20 30 -34 -12 -30 -24 -56 -50 -56 -56 -1 -7 -7 -13
-14 -13 -8 0 -22 -9 -32 -20 -10 -11 -22 -20 -27 -20 -4 0 -8 381 -8 846 1
466 -1 848 -3 850 -2 2 -35 -23 -74 -55 -58 -49 -70 -65 -71 -90 0 -17 4 -31
10 -31 18 0 0 -60 -24 -80 -13 -11 -28 -19 -34 -20 -15 0 -57 48 -88 101 -23
40 -24 48 -12 58 8 7 18 27 22 44 3 17 14 43 23 56 19 30 183 138 222 146 l29
7 0 1599 0 1599 1060 0 c700 0 1060 3 1060 10 0 6 9 10 20 10 11 0 20 -4 20
-10 0 -5 12 -10 26 -10 20 0 25 4 20 16 -3 9 -6 24 -6 35 0 21 -26 26 -33 7
-3 -10 -13 -11 -47 -1 -38 10 -46 9 -60 -5 -19 -22 -67 -25 -74 -6 -7 18 14
54 31 54 7 0 13 7 13 15 0 8 -7 15 -15 15 -8 0 -15 -7 -15 -15 0 -8 -9 -15
-20 -15 -17 0 -20 7 -20 40 0 33 -3 40 -20 40 -15 0 -20 7 -20 29 0 16 -7 36
-15 44 -8 8 -14 35 -15 63 -1 73 0 82 15 88 30 11 30 106 -1 106 -16 0 -20 56
-5 62 5 2 12 24 16 51 7 46 7 47 -19 47 -17 0 -26 5 -26 16 0 11 6 14 23 8 12
-3 27 -11 34 -16 9 -7 17 -5 28 5 13 13 21 36 13 37 -67 10 -77 10 -91 -4 -9
-9 -31 -19 -49 -23 -18 -4 -39 -12 -46 -20 -7 -7 -22 -13 -33 -13 -23 0 -61
-20 -72 -37 -4 -7 -17 -13 -28 -13 -12 0 -23 -8 -26 -20 -3 -11 -9 -20 -14
-20 -4 0 -9 -12 -11 -27 -4 -39 -47 -62 -82 -44 -15 9 -41 12 -66 8 -33 -4
-42 -2 -51 14 -5 11 -7 24 -4 29 3 5 -6 21 -19 35 -25 27 -46 26 -46 -1 0 -8
-9 -14 -20 -14 -15 0 -21 -9 -26 -40 -7 -43 -30 -72 -42 -53 -4 6 -20 15 -36
19 -16 4 -31 15 -33 24 -3 11 -11 16 -23 13 -12 -3 -24 4 -35 21 -10 14 -23
26 -29 26 -7 0 -25 13 -40 29 -20 21 -37 29 -64 28 -43 0 -92 18 -92 33 0 5
-4 10 -10 10 -5 0 -10 -7 -10 -15 0 -8 -4 -15 -10 -15 -5 0 -10 -6 -10 -14 0
-11 -10 -13 -42 -9 -24 4 -46 11 -50 17 -6 8 -11 7 -17 -3 -7 -11 -10 -6 -13
20 -2 26 -8 35 -24 37 -17 2 -23 12 -28 43 -6 38 -8 40 -39 39 -17 -1 -40 -2
-49 -1 -25 1 -23 31 2 31 11 0 20 7 20 15 0 13 -29 19 -66 14 -4 0 -10 5 -14
12 -11 17 -132 33 -141 18 -4 -7 -35 -12 -73 -13 -58 -2 -65 0 -68 19 -2 11
-7 18 -13 15 -5 -3 -9 -13 -8 -22 3 -19 -10 -23 -61 -19 -26 2 -45 -11 -46
-31 0 -5 11 -8 25 -8 18 0 25 -5 25 -20 0 -21 -16 -25 -57 -14 -18 5 -23 14
-23 40 0 33 -1 34 -40 34 -29 0 -40 -4 -40 -15 0 -8 -4 -15 -10 -15 -18 0 -11
61 11 88 l21 27 -31 8 c-26 6 -31 13 -31 36 0 30 19 45 45 35 11 -5 13 -2 8
12 -4 12 -3 15 5 10 9 -5 12 11 12 57 0 57 -3 66 -25 83 -16 12 -25 29 -25 46
0 14 -5 28 -12 30 -7 3 -13 25 -13 54 -2 70 -14 114 -34 114 -14 0 -14 2 -1
10 12 8 9 10 -12 10 -30 0 -48 24 -48 64 0 23 -4 26 -34 26 -18 0 -39 7 -46
15 -7 8 -16 13 -20 10 -4 -3 -10 2 -14 10 -3 8 -12 15 -19 15 -22 0 -36 249
-22 385 1 17 3 53 4 81 1 43 4 53 22 57 16 4 20 12 17 39 -2 18 -6 36 -11 39
-4 3 -1 29 6 58 7 28 16 49 19 46 3 -3 8 1 11 10 6 13 -33 15 -348 15 l-355 0
0 -5400z m14910 4295 c0 -8 -7 -15 -15 -15 -8 0 -15 7 -15 15 0 8 7 15 15 15
8 0 15 -7 15 -15z m1630 -620 c0 -8 -4 -15 -10 -15 -5 0 -10 -7 -10 -15 0 -8
-4 -15 -10 -15 -5 0 -10 7 -10 15 0 8 5 15 10 15 6 0 10 7 10 15 0 8 5 15 10
15 6 0 10 -7 10 -15z m-350 -70 c0 -8 -4 -15 -9 -15 -5 0 -16 -3 -24 -6 -12
-4 -14 0 -10 15 6 24 43 29 43 6z m-110 -15 c0 -5 -4 -10 -10 -10 -5 0 -10 5
-10 10 0 6 5 10 10 10 6 0 10 -4 10 -10z m440 -415 c0 -9 -9 -15 -25 -15 -22
0 -24 2 -13 15 17 19 38 19 38 0z m-15845 -1347 c45 -22 57 -35 120 -129 58
-86 59 -117 7 -167 -23 -22 -47 -60 -60 -93 -11 -30 -30 -74 -42 -97 -21 -40
-24 -42 -66 -42 -24 0 -44 1 -45 3 -1 1 -3 56 -5 123 -4 111 -3 122 16 139 35
32 3 111 -66 163 -24 18 -44 41 -44 50 0 19 44 65 70 75 22 8 69 -2 115 -25z
m18181 -765 c13 -8 24 -25 24 -37 0 -34 -12 -66 -21 -60 -5 3 -9 -2 -9 -10 0
-11 -9 -16 -28 -16 -51 0 -116 90 -98 136 5 14 15 15 57 10 28 -4 62 -14 75
-23z m-18316 -1202 c0 -4 -9 -18 -19 -30 -11 -13 -22 -28 -24 -34 -3 -9 -9 -9
-23 -1 -33 19 -28 41 13 62 36 19 53 20 53 3z m-152 -126 c10 -21 9 -27 -3
-32 -9 -3 -18 -3 -21 0 -4 3 -17 2 -30 -3 -28 -11 -28 -12 -8 28 19 39 47 41
62 7z m212 -429 c-18 -23 -37 -20 -57 10 -16 25 -16 27 2 40 17 13 22 12 44
-10 20 -21 22 -27 11 -40z m7060 4 c0 -6 11 -15 25 -20 15 -6 25 -17 25 -30 0
-15 7 -20 25 -20 23 0 65 -34 65 -52 0 -15 -26 -8 -48 12 -12 11 -26 20 -32
20 -6 0 -23 14 -37 30 -13 17 -33 30 -44 30 -18 0 -26 20 -12 33 10 11 33 8
33 -3z m-7040 -458 c0 -10 -12 -35 -26 -56 -22 -32 -30 -37 -52 -31 -36 8 -53
32 -45 64 8 34 4 31 60 40 55 9 63 6 63 -17z m6615 -491 c3 -5 1 -13 -5 -16
-15 -9 -43 3 -35 15 8 13 32 13 40 1z m136 -98 c14 -38 -6 -56 -31 -25 -23 28
-34 28 -52 0 l-15 -22 -12 22 c-10 19 -9 22 6 22 10 0 27 7 37 15 30 23 55 18
67 -12z m100 -196 c-8 -8 -11 -7 -11 4 0 20 13 34 18 19 3 -7 -1 -17 -7 -23z
m-6501 -17 c0 -5 -6 -10 -13 -10 -8 0 -19 -10 -25 -22 -9 -20 -11 -21 -11 -4
-1 10 7 25 17 32 21 16 32 17 32 4z m4729 -329 c8 -5 9 -11 3 -15 -13 -8 -72
4 -72 15 0 11 51 11 69 0z m191 -87 c0 -17 -12 -18 -28 -2 -18 18 -15 27 8 21
11 -3 20 -12 20 -19z m-4920 -339 c13 -14 21 -27 18 -30 -2 -3 -17 9 -33 25
-16 17 -24 30 -19 30 6 0 21 -11 34 -25z m230 -7 c0 -6 -7 -5 -15 2 -8 7 -15
17 -15 22 0 6 7 5 15 -2 8 -7 15 -17 15 -22z m3270 -244 c0 -8 -4 -12 -10 -9
-5 3 -10 10 -10 16 0 5 5 9 10 9 6 0 10 -7 10 -16z m13257 -1134 c22 -461 13
-630 -35 -673 -9 -9 -47 -23 -84 -33 -81 -22 -112 -13 -121 36 -4 17 -20 44
-37 58 -26 23 -30 33 -30 82 0 30 -6 66 -13 80 -13 25 -19 26 -68 15 -23 -6
-27 -2 -39 34 -14 43 -13 48 23 144 7 21 19 43 25 49 7 7 12 24 12 39 0 15 6
32 14 38 8 6 19 31 25 56 6 24 15 47 21 50 5 3 10 16 10 28 0 12 7 40 16 64
14 35 30 51 98 95 44 30 92 61 106 71 14 9 34 15 45 14 19 -2 21 -14 32 -247z
m-565 -163 c-5 -40 -57 -166 -72 -177 -4 -3 -21 -31 -39 -62 -37 -68 -94 -128
-121 -128 -10 0 -25 -3 -33 -6 -12 -4 -16 8 -22 58 -6 54 -11 67 -38 90 -42
35 -35 47 79 124 49 33 120 81 157 106 81 55 97 54 89 -5z m72 -442 c3 -8 14
-15 24 -15 10 0 23 -5 30 -12 19 -19 14 -73 -7 -92 -18 -17 -21 -17 -46 0 -33
21 -57 6 -38 -25 21 -34 -6 -42 -37 -11 -23 23 -26 40 -7 40 13 0 42 57 51
103 7 30 21 35 30 12z"/>
<path d="M17408 1045 c-8 -18 -8 -32 3 -57 27 -68 47 -49 41 38 -4 50 -25 60
-44 19z"/>
<path d="M1870 10790 c0 -5 -6 -10 -14 -10 -8 0 -16 -16 -19 -42 -3 -24 -11
-44 -16 -46 -23 -8 -10 -22 19 -22 43 0 41 -30 -2 -31 -31 -2 -31 -2 -5 -6 30
-5 39 -39 12 -49 -18 -7 -20 -40 -4 -50 7 -4 9 -23 5 -50 -4 -35 -3 -44 9 -44
9 0 15 9 15 24 0 19 4 23 20 19 13 -4 20 -14 20 -30 0 -19 -4 -24 -16 -19 -11
4 -18 -1 -21 -14 -3 -11 -8 -20 -12 -20 -3 0 -7 -20 -8 -45 -2 -38 1 -45 17
-45 19 0 70 -43 70 -59 0 -4 11 -14 25 -21 14 -7 25 -22 25 -32 0 -10 5 -18
11 -18 7 0 8 -11 4 -30 -5 -24 -3 -30 10 -30 9 0 13 5 10 11 -11 17 27 45 70
51 22 4 34 4 28 1 -23 -9 -14 -33 12 -33 16 0 25 6 25 15 0 8 7 15 15 15 8 0
15 -7 15 -15 0 -8 5 -15 10 -15 6 0 10 11 10 25 0 14 -4 25 -10 25 -5 0 -10 4
-10 9 0 16 84 18 96 2 9 -12 15 -11 37 5 30 22 33 36 12 58 -21 20 -19 36 5
36 13 0 20 7 20 19 0 11 -9 23 -20 26 -11 3 -20 11 -20 16 0 15 -27 10 -34 -6
-7 -19 -25 -19 -32 0 -4 9 3 24 16 35 27 24 46 25 54 5 7 -20 30 -19 47 1 11
13 10 17 -4 25 -21 12 -22 52 -3 72 9 8 12 24 9 36 -4 15 -1 21 11 21 9 0 16
7 16 15 0 8 -7 15 -15 15 -11 0 -15 11 -15 40 0 35 -3 40 -27 45 -16 4 -36 10
-45 15 -22 12 -46 3 -53 -21 -6 -17 -28 -24 -62 -20 -7 1 -25 13 -39 26 -24
22 -26 30 -22 75 l5 50 -128 0 c-79 0 -129 -4 -129 -10z m450 -215 c0 -8 -4
-15 -10 -15 -5 0 -10 7 -10 15 0 8 5 15 10 15 6 0 10 -7 10 -15z m-33 -60 c-4
-8 -14 -11 -26 -8 -27 7 -27 22 2 32 23 9 33 0 24 -24z m-37 -100 c0 -8 -2
-15 -4 -15 -2 0 -6 7 -10 15 -3 8 -1 15 4 15 6 0 10 -7 10 -15z m70 -160 c0
-16 -6 -25 -15 -25 -9 0 -15 9 -15 25 0 16 6 25 15 25 9 0 15 -9 15 -25z"/>
<path d="M5680 10781 c0 -30 21 -81 31 -75 5 3 9 -1 9 -9 0 -8 9 -24 20 -37
11 -13 20 -31 20 -41 0 -10 6 -22 13 -26 8 -4 16 -15 19 -24 4 -9 20 -19 37
-22 28 -6 45 -27 21 -27 -5 0 -10 -6 -10 -13 0 -17 74 -52 89 -43 12 8 12 84
0 92 -5 3 -9 18 -9 34 0 16 -4 32 -10 35 -5 3 -10 16 -10 29 0 13 -9 31 -20
41 -11 10 -20 23 -20 29 0 6 -15 18 -32 26 -18 7 -42 22 -52 32 -15 14 -22 15
-28 6 -6 -10 -11 -11 -28 0 -28 17 -40 15 -40 -7z"/>
<path d="M10046 10784 c-3 -9 -6 -23 -6 -33 0 -11 -15 -22 -42 -32 -40 -15
-43 -18 -43 -53 0 -20 -6 -40 -13 -45 -8 -5 -12 -17 -11 -27 2 -11 0 -24 -4
-31 -8 -13 2 -45 12 -38 4 2 7 -33 7 -78 -1 -66 -4 -85 -18 -95 -20 -15 -23
-53 -7 -84 16 -30 -6 -65 -46 -72 -28 -6 -34 -12 -39 -41 -4 -21 -13 -35 -21
-35 -8 0 -15 -9 -15 -20 0 -11 -4 -20 -9 -20 -6 0 -7 16 -4 35 4 28 2 35 -11
35 -9 0 -16 -7 -16 -15 0 -9 -9 -15 -25 -15 -14 0 -25 -4 -25 -10 0 -5 -7 -10
-15 -10 -11 0 -15 -12 -15 -52 0 -44 -4 -56 -27 -75 -14 -13 -29 -23 -33 -23
-10 0 -7 -106 3 -116 4 -4 7 -18 7 -30 0 -18 4 -22 17 -17 11 4 14 3 9 -5 -4
-7 0 -19 8 -28 9 -8 16 -29 16 -45 0 -19 5 -29 15 -29 17 0 20 -27 4 -32 -17
-6 7 -48 26 -48 12 0 14 9 9 40 -4 25 -3 40 4 40 6 0 13 14 17 30 5 23 12 30
31 30 17 0 24 6 24 20 0 26 30 60 52 60 10 0 18 5 18 10 0 6 8 18 18 28 9 10
23 30 31 45 15 28 56 38 64 15 2 -9 16 -5 43 15 22 15 48 27 57 27 9 0 17 4
17 9 0 5 9 13 20 16 11 3 20 13 20 21 0 8 9 23 19 33 16 16 20 17 25 5 3 -8
13 -13 23 -13 17 1 17 2 1 6 -10 2 -18 10 -18 18 0 17 39 26 62 14 15 -8 18
-6 18 12 0 12 -9 29 -19 38 -48 42 -56 137 -17 196 43 65 150 130 234 141 46
6 56 4 87 -20 19 -15 35 -33 35 -40 0 -7 18 -32 40 -57 54 -60 90 -132 90
-181 0 -50 -49 -140 -85 -156 -14 -6 -25 -16 -25 -22 0 -18 -16 -10 -61 30
-34 31 -52 40 -79 40 -106 0 -121 -3 -117 -20 2 -8 9 -14 15 -12 7 1 12 -5 12
-13 0 -8 5 -15 10 -15 6 0 10 -5 10 -11 0 -6 7 -17 15 -25 8 -9 18 -27 22 -42
5 -22 42 -62 50 -55 2 2 13 -8 26 -20 28 -29 34 -69 9 -65 -21 4 -17 -33 4
-45 8 -5 12 -13 8 -19 -3 -5 3 -22 13 -37 27 -36 34 -61 35 -121 0 -57 -22
-100 -51 -100 -12 0 -21 -9 -25 -25 -4 -14 -10 -24 -14 -24 -4 1 -18 1 -31 0
-22 -1 -23 -4 -19 -62 3 -38 10 -64 19 -70 10 -6 15 -3 18 9 3 16 19 32 32 32
4 0 18 -12 32 -26 26 -26 47 -25 47 1 0 23 43 95 57 95 8 0 13 -13 13 -35 0
-24 5 -35 15 -35 8 0 15 -8 15 -17 1 -24 34 -63 55 -63 10 0 13 -4 8 -12 -11
-19 -14 -138 -3 -138 6 0 10 -11 10 -25 0 -22 4 -25 40 -25 27 0 42 -6 49 -17
10 -17 10 -17 11 0 0 9 -4 17 -10 17 -6 0 -10 38 -10 94 0 59 -4 97 -11 102
-7 4 -9 24 -6 53 3 27 -3 84 -14 141 -12 57 -17 110 -13 133 4 27 2 37 -8 37
-26 0 -9 274 18 284 8 3 14 16 14 28 0 41 48 95 113 128 17 8 38 30 48 49 30
56 88 113 153 152 24 14 46 17 99 14 37 -3 77 -10 90 -16 39 -21 98 -28 104
-13 3 9 21 14 49 14 32 0 44 4 44 15 0 8 5 15 10 15 13 0 13 47 1 52 -5 2 -12
20 -16 41 -6 30 -4 37 9 37 9 0 16 8 16 20 0 11 5 20 10 20 6 0 10 -9 10 -20
0 -11 -5 -20 -11 -20 -21 0 -4 -45 19 -48 20 -3 22 -9 22 -58 0 -41 4 -54 15
-54 9 0 15 9 15 25 0 20 5 25 25 25 14 0 25 -4 25 -10 0 -5 11 -10 25 -10 20
0 25 5 25 25 0 16 6 25 15 25 8 0 15 4 15 9 0 5 -24 13 -53 16 -72 9 -86 18
-69 45 6 11 12 29 12 40 0 11 7 20 15 20 8 0 15 4 15 8 0 17 38 52 55 52 23 0
65 46 65 71 0 10 4 19 9 19 5 0 12 23 16 52 6 40 4 53 -6 57 -8 2 -26 17 -41
33 -33 35 -68 31 -68 -8 0 -15 -6 -24 -15 -24 -9 0 -15 9 -15 25 0 29 -7 31
-37 7 -16 -12 -21 -23 -17 -39 4 -13 10 -23 15 -23 15 0 10 -27 -6 -34 -9 -3
-19 3 -25 14 -13 24 -50 27 -50 4 0 -12 -6 -15 -21 -11 -20 5 -21 3 -15 -39 4
-34 2 -44 -8 -44 -8 0 -16 7 -20 15 -3 8 -12 15 -20 15 -9 0 -13 6 -10 14 3 7
-2 16 -10 19 -9 4 -16 18 -16 32 0 29 -19 39 -94 50 -31 5 -51 3 -61 -5 -8 -7
-26 -10 -40 -6 -18 5 -32 1 -47 -14 -12 -11 -32 -20 -44 -20 -26 0 -74 36 -74
55 0 8 -9 19 -20 25 -12 6 -20 21 -20 36 l0 25 -231 -3 c-208 -3 -232 -5 -244
-21 -12 -17 -85 -31 -85 -16 0 4 -14 15 -32 23 -46 24 -393 24 -402 0z m1560
-184 c1 -33 -2 -40 -17 -40 -15 0 -19 8 -19 40 0 32 4 40 18 40 13 0 18 -9 18
-40z m-76 -130 c0 -33 -3 -40 -19 -40 -26 0 -32 12 -25 49 5 21 12 31 25 31
15 0 19 -8 19 -40z"/>
<path d="M4820 10760 c0 -5 5 -10 10 -10 6 0 10 5 10 10 0 6 -4 10 -10 10 -5
0 -10 -4 -10 -10z"/>
<path d="M4930 10753 c0 -14 -2 -15 -9 -4 -13 20 -81 -6 -81 -31 0 -10 -7 -18
-15 -18 -8 0 -15 -4 -15 -10 0 -5 -4 -10 -10 -10 -5 0 -10 9 -10 20 0 11 -7
20 -15 20 -8 0 -15 -7 -15 -15 0 -8 -15 -29 -33 -47 -42 -42 -60 -86 -51 -124
4 -16 10 -31 15 -34 13 -9 -3 -63 -22 -67 -16 -5 -16 -6 -1 -24 9 -10 22 -19
28 -19 10 0 24 -21 24 -35 0 -2 -17 -5 -37 -7 -37 -3 -38 -4 -41 -45 -2 -34 0
-43 12 -43 9 0 16 -7 16 -15 0 -8 -5 -15 -11 -15 -6 0 -9 -12 -7 -27 3 -26 6
-28 41 -25 34 3 37 1 37 -22 0 -21 6 -26 36 -32 29 -5 38 -3 50 15 13 17 18
19 34 8 17 -10 24 -8 45 16 29 31 43 34 51 12 4 -8 12 -15 19 -15 7 0 18 7 25
15 8 10 31 15 71 15 52 0 59 2 59 20 0 14 -7 20 -23 20 -36 0 -38 10 -10 36
22 21 25 29 19 68 -5 30 -3 52 6 66 10 16 10 22 1 28 -9 6 -14 45 -17 118 -2
60 -5 110 -5 112 -1 1 -8 2 -18 2 -9 0 -14 3 -10 6 7 7 -29 44 -43 44 -5 0
-10 4 -10 10 0 5 -11 12 -24 16 -14 3 -27 12 -30 20 -8 20 -26 17 -26 -3z"/>
<path d="M8166 10718 c-18 -25 -21 -110 -7 -172 12 -51 53 -91 108 -108 25 -7
48 -19 50 -25 7 -18 43 -16 43 1 0 8 6 16 13 19 30 10 1 221 -36 255 -55 52
-145 67 -171 30z"/>
<path d="M17305 10691 c-16 -3 -31 -13 -33 -21 -2 -12 10 -15 63 -15 36 0 65
3 65 7 0 5 -7 8 -15 8 -8 0 -15 7 -15 15 0 16 -15 17 -65 6z"/>
<path d="M8540 10613 c0 -16 5 -35 10 -43 7 -11 10 -4 10 28 0 23 -4 42 -10
42 -5 0 -10 -12 -10 -27z"/>
<path d="M2410 10560 c0 -5 7 -7 15 -4 8 4 15 8 15 10 0 2 -7 4 -15 4 -8 0
-15 -4 -15 -10z"/>
<path d="M14113 10503 c-13 -2 -23 -9 -23 -14 0 -5 -27 -9 -60 -9 -47 0 -60
-3 -60 -15 0 -11 -11 -15 -37 -15 -53 0 -133 -50 -133 -83 0 -16 -35 -43 -65
-48 -14 -3 -22 -20 -32 -66 -11 -50 -18 -62 -35 -65 -14 -2 -25 -14 -30 -33
-25 -85 -48 -183 -48 -208 0 -16 -4 -26 -10 -22 -6 4 -10 -5 -10 -20 0 -15 4
-24 10 -20 15 9 12 -8 -6 -33 -18 -27 -11 -42 20 -42 13 0 40 -7 59 -15 31
-13 38 -13 50 0 17 16 27 10 27 -17 0 -10 5 -18 11 -18 7 0 22 -11 35 -25 13
-14 27 -25 32 -25 4 0 14 -16 21 -35 8 -23 19 -35 31 -35 25 0 90 31 90 43 0
5 7 7 15 3 8 -3 26 6 41 19 15 14 30 22 35 19 5 -3 9 0 9 5 0 6 15 11 33 11
41 0 59 12 51 33 -4 13 -1 17 15 17 12 0 21 5 21 11 0 14 26 40 33 32 12 -11
77 8 77 23 0 11 8 15 29 12 16 -1 39 3 52 9 13 6 48 19 77 28 47 15 52 19 52
46 0 16 9 38 20 49 14 14 18 28 14 45 -8 34 3 75 21 75 8 0 15 7 15 15 0 9 6
18 13 20 6 3 13 24 14 48 1 23 3 53 5 67 2 18 -3 28 -19 35 -13 5 -23 18 -23
27 0 10 -4 18 -8 18 -5 0 -15 18 -22 40 -10 31 -17 39 -31 35 -14 -5 -16 -1
-12 15 4 17 1 20 -24 20 -16 0 -34 5 -40 11 -7 7 -38 12 -70 12 -32 0 -61 5
-65 10 -7 12 -126 19 -165 10z m-506 -595 c-3 -7 -5 -2 -5 12 0 14 2 19 5 13
2 -7 2 -19 0 -25z"/>
<path d="M8490 10455 c0 -8 9 -15 20 -15 11 0 20 7 20 15 0 8 -9 15 -20 15
-11 0 -20 -7 -20 -15z"/>
<path d="M11865 10450 c3 -5 8 -10 11 -10 2 0 4 5 4 10 0 6 -5 10 -11 10 -5 0
-7 -4 -4 -10z"/>
<path d="M8548 10405 c-3 -14 -1 -25 3 -25 5 0 9 11 9 25 0 14 -2 25 -4 25 -2
0 -6 -11 -8 -25z"/>
<path d="M11882 10418 c-19 -19 -14 -30 11 -22 22 7 22 6 4 -14 -10 -11 -21
-39 -24 -61 -6 -44 -20 -62 -33 -41 -11 18 -44 4 -36 -16 3 -9 6 -22 6 -29 0
-7 11 -16 25 -19 18 -5 25 -13 25 -30 0 -31 21 -47 64 -49 20 -1 36 -5 36 -9
0 -5 9 -8 20 -8 11 0 20 5 20 10 0 7 6 7 20 0 16 -9 20 -8 20 5 0 26 37 18 44
-10 5 -20 13 -25 36 -25 19 0 31 6 35 19 6 21 -3 52 -19 64 -7 5 -6 10 4 17
12 7 12 12 2 22 -6 6 -12 22 -12 34 0 12 -9 33 -20 47 -11 14 -20 31 -20 39
-1 9 -5 7 -14 -5 -14 -18 -16 -17 -46 15 -18 18 -38 32 -46 30 -8 -2 -14 5
-14 16 0 31 -63 45 -88 20z"/>
<path d="M9209 10369 c-17 -14 -20 -22 -11 -25 6 -3 12 -14 12 -25 0 -22 -1
-22 -33 -10 -28 11 -42 4 -51 -25 -5 -15 -2 -24 9 -28 13 -4 14 -10 5 -26 -14
-27 -3 -61 18 -58 10 2 18 -5 20 -17 2 -11 7 -29 12 -40 5 -11 14 -37 20 -57
10 -33 16 -38 41 -38 19 0 29 -5 29 -15 0 -9 9 -15 25 -15 15 0 25 6 25 14 0
11 15 16 53 18 l52 3 3 37 c3 29 -1 39 -19 48 -15 9 -18 15 -10 23 19 19 13
71 -9 85 -11 7 -20 23 -20 37 0 14 -4 25 -10 25 -5 0 -10 9 -10 19 0 11 -16
35 -35 55 -40 42 -80 47 -116 15z"/>
<path d="M8343 10223 c-19 -7 -16 -44 8 -97 19 -43 19 -52 8 -121 -7 -41 -16
-72 -21 -69 -4 3 -8 -11 -8 -30 0 -29 4 -36 20 -36 13 0 20 -7 20 -20 0 -11 7
-20 15 -20 8 0 15 7 15 15 0 9 7 18 16 22 9 3 20 15 24 27 7 16 9 17 9 4 1
-10 13 -19 30 -23 22 -5 28 -10 24 -26 -4 -13 0 -19 11 -19 9 0 16 7 16 15 0
22 21 18 27 -5 6 -23 26 -26 42 -6 7 8 28 22 47 31 19 9 41 27 50 40 32 49 41
145 13 145 -5 0 -23 14 -41 30 -17 17 -37 30 -44 30 -7 0 -18 9 -24 20 -6 11
-17 20 -25 20 -7 0 -15 5 -17 11 -2 6 -34 14 -71 18 -43 5 -71 13 -79 23 -15
18 -47 29 -65 21z"/>
<path d="M3870 10181 c0 -29 -2 -31 -35 -31 -33 0 -35 -2 -35 -34 0 -21 6 -36
15 -40 8 -3 15 -13 15 -22 0 -8 6 -14 12 -12 21 7 39 -19 32 -46 -3 -14 -3
-29 0 -35 9 -14 36 -2 36 15 0 18 53 19 72 2 20 -19 45 -20 52 -2 8 20 -4 94
-15 94 -5 0 -9 13 -9 29 0 25 -3 28 -24 24 -22 -5 -25 -1 -28 28 -3 29 -7 34
-33 37 -16 2 -36 8 -42 14 -10 8 -13 3 -13 -21z"/>
<path d="M4650 10135 c0 -8 7 -15 15 -15 8 0 15 -4 15 -10 0 -5 7 -10 15 -10
9 0 15 9 15 25 0 21 -5 25 -30 25 -20 0 -30 -5 -30 -15z"/>
<path d="M9630 10045 c0 -8 5 -15 10 -15 6 0 10 7 10 15 0 8 -4 15 -10 15 -5
0 -10 -7 -10 -15z"/>
<path d="M12177 10023 c-12 -11 -8 -23 8 -23 8 0 15 7 15 15 0 16 -12 20 -23
8z"/>
<path d="M14561 10014 c0 -11 3 -14 6 -6 3 7 2 16 -1 19 -3 4 -6 -2 -5 -13z"/>
<path d="M3720 10010 c0 -5 7 -10 16 -10 8 0 12 5 9 10 -3 6 -10 10 -16 10 -5
0 -9 -4 -9 -10z"/>
<path d="M9542 10008 c5 -15 28 -23 28 -10 0 5 -7 13 -16 16 -10 4 -14 1 -12
-6z"/>
<path d="M9290 9950 c0 -5 5 -10 10 -10 6 0 10 5 10 10 0 6 -4 10 -10 10 -5 0
-10 -4 -10 -10z"/>
<path d="M3732 9892 c-26 -30 -25 -57 3 -57 13 0 21 10 28 34 11 45 -2 55 -31
23z"/>
<path d="M6986 9615 c4 -8 8 -15 10 -15 2 0 4 7 4 15 0 8 -4 15 -10 15 -5 0
-7 -7 -4 -15z"/>
<path d="M7010 9588 c0 -9 5 -20 10 -23 13 -8 13 5 0 25 -8 13 -10 13 -10 -2z"/>
<path d="M7040 9553 c0 -15 80 -103 93 -103 7 0 -3 14 -20 30 -18 16 -33 34
-33 38 0 5 -9 17 -20 27 -11 10 -20 14 -20 8z"/>
<path d="M9820 9514 c0 -44 1 -45 28 -42 51 6 37 88 -15 88 -9 0 -13 -15 -13
-46z"/>
<path d="M7110 9540 c0 -5 5 -10 10 -10 6 0 10 5 10 10 0 6 -4 10 -10 10 -5 0
-10 -4 -10 -10z"/>
<path d="M2920 9469 c0 -32 -3 -39 -20 -39 -11 0 -20 -7 -20 -15 0 -8 7 -15
15 -15 9 0 20 -12 25 -26 9 -22 15 -25 47 -22 33 3 38 6 41 32 2 18 0 26 -7
21 -6 -3 -11 -1 -11 4 0 6 -13 11 -30 11 -24 0 -30 4 -30 21 0 18 4 20 26 15
31 -8 86 14 82 32 -2 9 -23 15 -60 17 l-58 3 0 -39z"/>
<path d="M13393 9498 c-4 -7 -6 -21 -5 -31 3 -16 -19 -47 -32 -47 -3 0 -6 9
-6 20 0 25 -8 25 -33 3 -12 -11 -35 -18 -60 -18 -32 0 -43 -4 -45 -17 -3 -14
3 -18 27 -18 21 0 31 -5 31 -15 0 -8 -7 -15 -15 -15 -8 0 -15 -9 -15 -20 0
-11 -6 -20 -12 -20 -20 0 -67 -103 -61 -133 6 -30 -1 -34 -23 -12 -12 12 -19
12 -34 2 -11 -6 -20 -17 -20 -23 0 -6 -9 -23 -20 -37 -36 -45 -39 -137 -5
-137 8 0 15 -7 15 -15 0 -8 9 -15 20 -15 11 0 20 6 20 14 0 7 9 16 20 19 15 4
20 14 20 41 0 26 4 36 15 36 9 0 18 -7 21 -15 4 -8 18 -15 33 -15 15 0 32 -5
39 -12 9 -9 13 -7 19 8 4 10 19 20 32 22 36 4 60 30 72 78 11 41 31 59 74 66
18 3 20 11 20 68 l0 65 -42 20 c-46 22 -54 40 -23 48 22 6 27 47 10 91 -10 28
-24 33 -37 14z"/>
<path d="M1711 9454 c0 -11 3 -14 6 -6 3 7 2 16 -1 19 -3 4 -6 -2 -5 -13z"/>
<path d="M14050 9375 c0 -8 7 -15 15 -15 8 0 15 7 15 15 0 8 -7 15 -15 15 -8
0 -15 -7 -15 -15z"/>
<path d="M14076 9342 c-26 -6 -55 -42 -56 -68 0 -14 11 -25 38 -37 42 -18 77
-14 86 11 3 10 9 23 12 29 3 8 -5 17 -20 23 -14 5 -26 16 -26 24 0 19 -10 24
-34 18z"/>
<path d="M10092 9309 c-18 -28 -28 -119 -14 -119 6 0 13 19 15 43 l4 42 1 -42
c1 -24 7 -43 12 -43 6 0 10 -11 10 -25 0 -26 15 -34 23 -12 4 10 6 10 6 0 1
-7 9 -13 20 -13 14 0 20 10 25 43 8 53 0 77 -25 77 -12 0 -19 7 -19 20 0 11
-7 20 -15 20 -8 0 -15 7 -15 15 0 21 -13 19 -28 -6z"/>
<path d="M11914 9304 c-4 -14 -2 -30 4 -36 15 -15 52 13 52 39 0 35 -47 32
-56 -3z"/>
<path d="M3828 9305 c-4 -4 -4 -13 -1 -21 3 -8 -1 -14 -11 -14 -9 0 -16 -7
-16 -15 0 -19 -32 -35 -58 -29 -35 10 -55 -35 -56 -122 -1 -67 -2 -74 -21 -74
-23 -1 -55 -22 -55 -38 0 -14 -33 -24 -54 -16 -11 4 -16 1 -16 -10 0 -9 -7
-16 -15 -16 -16 0 -35 -30 -35 -57 0 -15 -10 -18 -58 -21 -38 -2 -61 -8 -69
-19 -18 -23 -105 -30 -122 -9 -14 17 -51 22 -51 7 0 -5 -16 -15 -35 -22 -30
-11 -35 -17 -35 -46 0 -23 -5 -33 -15 -33 -8 0 -15 7 -15 15 0 8 -4 15 -10 15
-5 0 -10 -9 -10 -20 0 -11 4 -20 9 -20 5 0 12 -15 15 -34 5 -28 12 -35 34 -38
31 -3 45 -44 18 -54 -18 -7 -22 -39 -6 -49 6 -3 10 -22 10 -41 l0 -34 588 0
c490 1 584 3 570 14 -10 7 -18 18 -18 25 0 6 -16 11 -36 11 -35 0 -64 18 -64
39 0 19 -24 12 -48 -14 -19 -20 -27 -22 -48 -14 -14 5 -30 7 -35 3 -5 -3 -9 4
-9 15 0 12 7 21 15 21 8 0 15 7 15 15 0 8 -7 15 -15 15 -8 0 -15 5 -15 10 0 6
-14 10 -31 10 -31 0 -31 0 -25 -40 6 -36 4 -40 -14 -40 -11 0 -20 -4 -20 -10
0 -5 -7 -10 -15 -10 -8 0 -15 -8 -15 -17 0 -12 -3 -14 -11 -6 -16 16 -1 73 18
73 10 0 14 6 10 19 -3 12 1 22 9 25 9 3 14 21 14 46 0 30 4 40 16 40 14 0 16
7 11 45 -6 37 -4 47 10 52 9 4 19 1 21 -5 2 -7 8 -10 13 -6 5 3 9 0 9 -5 0 -6
5 -11 10 -11 6 0 10 7 10 15 0 8 5 15 11 15 17 0 3 72 -17 87 -11 8 -14 20
-10 37 8 33 26 34 26 1 0 -27 29 -48 54 -39 8 3 19 -3 25 -15 6 -11 20 -23 31
-26 11 -3 20 -13 20 -21 0 -9 11 -14 30 -14 l30 0 0 75 c0 60 -3 75 -15 75 -8
0 -15 9 -15 20 0 11 -5 20 -11 20 -6 0 -22 9 -36 20 -30 24 -63 26 -63 5 0 -8
-9 -15 -20 -15 -15 0 -20 7 -20 29 0 15 -8 39 -19 52 -10 13 -21 34 -25 47 -4
12 -16 27 -27 32 -10 6 -19 21 -19 33 0 20 -4 23 -35 19 -20 -2 -35 0 -35 6 0
6 -17 16 -37 23 -21 7 -43 18 -48 26 -6 8 -13 11 -17 8z m2 -100 c0 -8 -7 -15
-15 -15 -8 0 -15 -7 -15 -16 0 -9 -5 -14 -12 -12 -18 6 -21 28 -4 28 9 0 16 7
16 15 0 8 7 15 15 15 8 0 15 -7 15 -15z"/>
<path d="M8320 9291 c0 -20 25 -51 41 -51 12 0 12 27 -1 51 -14 25 -40 25 -40
0z"/>
<path d="M2880 9271 c0 -20 7 -34 21 -41 19 -11 20 -9 17 27 -2 27 -8 39 -20
41 -14 3 -18 -3 -18 -27z"/>
<path d="M11828 9279 c-2 -5 -22 -13 -44 -16 -30 -4 -45 -12 -60 -34 -15 -23
-24 -28 -42 -24 -23 6 -23 4 -17 -53 6 -58 5 -61 -29 -97 -20 -21 -36 -42 -36
-46 0 -5 -9 -9 -19 -9 -13 0 -21 -9 -26 -30 -5 -22 -16 -34 -46 -47 -21 -9
-39 -22 -39 -29 0 -7 -6 -15 -12 -17 -8 -3 -6 -6 5 -6 21 -1 23 -36 3 -48 -8
-4 -16 -17 -18 -28 -2 -14 -11 -20 -28 -19 -13 1 -36 -11 -51 -25 -45 -43 -57
-51 -79 -51 -15 0 -20 -6 -20 -28 0 -35 -45 -66 -60 -42 -7 11 -10 11 -22 -1
-23 -23 -29 -49 -13 -55 10 -4 15 -20 15 -45 l0 -39 523 0 522 0 18 31 c14 25
15 34 5 46 -7 9 -8 17 -2 21 6 4 21 33 33 65 19 47 27 57 47 57 13 0 24 5 24
10 0 6 11 15 25 20 14 5 25 16 25 25 0 8 6 15 13 15 7 0 29 9 50 20 20 11 47
20 59 20 13 0 34 9 48 20 23 19 24 21 8 31 -10 5 -18 20 -18 33 0 13 -7 29
-15 36 -18 15 -45 6 -45 -14 0 -7 -12 -17 -26 -20 -25 -7 -36 -14 -73 -47 -15
-14 -19 -14 -32 0 -12 14 -14 13 -17 -3 -3 -12 -10 -16 -23 -13 -15 4 -19 0
-19 -19 0 -16 -4 -22 -14 -18 -15 6 -26 -23 -26 -70 0 -23 -3 -27 -20 -23 -11
3 -23 1 -26 -4 -9 -15 -82 -11 -91 5 -4 8 -19 16 -32 18 -13 1 -29 12 -35 23
-6 11 -14 22 -17 25 -3 3 -12 19 -19 36 -8 18 -19 30 -26 27 -7 -3 -13 14 -16
49 -3 28 -11 54 -17 56 -6 2 -11 10 -11 18 0 8 -10 14 -25 14 -16 0 -25 -6
-25 -15 0 -9 -9 -15 -25 -15 -19 0 -25 -5 -25 -21 0 -11 -7 -27 -15 -35 -13
-14 -17 -14 -30 0 -16 16 -21 82 -6 88 4 2 11 20 15 41 5 29 4 37 -8 37 -8 0
-17 6 -19 13 -4 10 -6 10 -6 0 -1 -15 -41 -18 -41 -3 0 6 5 10 10 10 6 0 10 7
10 15 0 8 7 15 15 15 8 0 15 5 15 10 0 6 7 10 15 10 8 0 21 14 30 30 9 17 20
30 25 30 16 0 12 39 -7 71 -17 29 -38 38 -45 18z m42 -54 c0 -24 -5 -35 -15
-35 -15 0 -22 50 -8 63 15 15 23 5 23 -28z"/>
<path d="M2686 9211 c-4 -7 -5 -15 -2 -18 9 -9 19 4 14 18 -4 11 -6 11 -12 0z"/>
<path d="M8460 9180 c-8 -5 -10 -10 -5 -10 6 0 20 -3 33 -6 16 -5 22 -2 22 10
0 18 -27 21 -50 6z"/>
<path d="M10140 9113 c-8 -3 -19 -12 -23 -19 -4 -8 -17 -14 -27 -14 -11 0 -20
-4 -20 -10 0 -5 9 -10 20 -10 11 0 23 -7 26 -15 4 -9 19 -15 35 -15 25 0 29 4
29 29 0 16 6 31 13 34 6 2 10 7 7 9 -9 10 -45 16 -60 11z"/>
<path d="M10491 9094 c-15 -33 -14 -34 9 -34 15 0 20 7 20 24 0 35 -15 40 -29
10z"/>
<path d="M10563 9070 c0 -25 2 -35 4 -22 2 12 2 32 0 45 -2 12 -4 2 -4 -23z"/>
<path d="M10668 9040 c-22 -25 -23 -48 -2 -71 25 -27 54 -13 54 27 0 23 -5 34
-14 34 -8 0 -16 7 -18 15 -2 13 -6 12 -20 -5z"/>
<path d="M14230 9045 c0 -10 10 -15 30 -15 20 0 30 5 30 15 0 10 -10 15 -30
15 -20 0 -30 -5 -30 -15z"/>
<path d="M4290 9010 c0 -13 7 -20 20 -20 13 0 20 7 20 20 0 13 -7 20 -20 20
-13 0 -20 -7 -20 -20z"/>
<path d="M5280 9015 c0 -8 -6 -25 -12 -36 -10 -17 -10 -23 0 -26 17 -6 15 -74
-3 -97 -21 -27 -19 -82 3 -96 12 -8 13 -13 5 -16 -15 -7 -18 -124 -4 -124 6 0
12 -15 14 -32 2 -18 5 74 5 205 1 130 0 237 -3 237 -3 0 -5 -7 -5 -15z"/>
<path d="M10789 8972 c7 -12 17 -22 24 -22 19 0 77 -50 77 -66 0 -9 -11 -14
-30 -14 -29 0 -30 -2 -30 -45 0 -33 -4 -45 -15 -45 -24 0 -17 -35 10 -50 14
-7 25 -22 25 -31 0 -11 -10 -21 -25 -25 -23 -6 -25 -11 -25 -60 0 -47 -3 -54
-19 -54 -16 0 -21 10 -26 55 -5 37 -12 55 -21 55 -10 0 -14 -15 -14 -55 0 -42
3 -55 15 -55 8 0 15 -4 15 -10 0 -5 11 -10 25 -10 16 0 25 -6 25 -15 0 -32 20
-13 26 25 6 38 24 57 24 25 0 -10 10 -15 30 -15 26 0 30 4 30 26 0 14 -7 32
-15 40 -8 8 -17 30 -21 50 -5 29 -2 38 17 55 17 14 32 19 51 15 20 -4 28 -1
28 8 0 8 -6 16 -12 18 -9 3 -8 9 4 21 19 19 35 22 40 7 5 -16 68 12 68 30 0 8
-9 21 -20 28 -24 14 -26 38 -5 46 17 6 21 46 5 46 -5 0 -10 -4 -10 -9 0 -5 -7
-17 -16 -26 -20 -19 -34 -6 -34 33 0 18 -6 22 -29 22 -17 0 -33 -4 -36 -10 -8
-12 -55 -13 -55 -1 0 5 -12 11 -27 13 -16 3 -36 9 -47 13 -16 7 -17 6 -7 -13z"/>
<path d="M7530 8971 c0 -6 47 -71 66 -90 2 -2 4 4 4 15 0 10 -13 34 -29 52
-29 32 -41 39 -41 23z"/>
<path d="M13049 8962 c-11 -2 -15 -10 -12 -23 6 -21 -22 -28 -30 -6 -3 6 -6 2
-6 -10 -1 -13 5 -23 13 -23 15 0 29 -38 19 -53 -3 -5 -20 -6 -38 -3 -31 6 -34
4 -56 -41 -13 -26 -30 -55 -38 -65 -17 -19 -51 -25 -51 -8 0 6 5 10 10 10 6 0
10 7 10 16 0 9 -6 14 -12 11 -7 -2 -18 3 -24 11 -18 24 -54 -5 -54 -45 0 -17
-4 -34 -9 -37 -13 -8 -2 -129 12 -138 9 -6 9 -10 1 -15 -6 -5 -14 -18 -18 -30
l-7 -23 906 0 c721 0 906 3 903 13 -3 6 -10 13 -16 13 -7 1 -16 2 -22 3 -5 0
-10 7 -10 15 0 8 -14 18 -32 21 -18 4 -35 10 -38 14 -3 4 -17 14 -32 24 -16
10 -28 27 -28 38 0 29 -30 55 -72 63 -29 5 -38 12 -38 26 0 11 7 20 15 20 8 0
15 4 15 9 0 12 -45 22 -64 15 -9 -3 -16 -2 -16 4 0 5 -18 12 -40 14 -36 3 -40
1 -40 -19 0 -13 -4 -23 -9 -23 -5 0 -8 -8 -7 -17 1 -22 -43 -30 -73 -14 -25
14 -50 4 -61 -24 -7 -18 -19 -24 -52 -28 -215 -26 -298 -38 -328 -45 -35 -9
-141 -61 -150 -73 -7 -10 -81 -29 -111 -29 -29 0 -33 6 -55 89 -12 44 -12 65
-3 110 6 30 16 63 22 72 8 13 8 24 -2 42 -7 14 -10 30 -6 37 4 7 -1 14 -14 17
-15 4 -21 13 -21 32 -1 31 -30 73 -37 54 -3 -7 -11 -13 -18 -13 -7 0 -15 -8
-18 -18 -5 -20 -44 -32 -104 -32 -30 0 -33 3 -28 20 8 25 -5 47 -26 42z"/>
<path d="M2880 8934 c0 -9 5 -14 12 -12 18 6 21 28 4 28 -9 0 -16 -7 -16 -16z"/>
<path d="M12608 8903 c-6 -49 1 -63 33 -63 25 0 29 -4 29 -27 0 -20 3 -24 9
-15 6 10 10 6 15 -14 14 -55 56 -61 56 -8 0 35 18 64 39 64 6 0 11 14 11 30 0
25 -4 30 -25 30 -22 0 -25 -4 -25 -40 0 -36 -2 -40 -26 -40 -37 0 -61 27 -46
51 22 34 20 36 -49 55 -12 3 -18 -3 -21 -23z"/>
<path d="M7627 8900 c-9 -11 -17 -23 -17 -27 0 -7 81 -103 138 -163 l32 -35
-15 31 c-8 17 -31 48 -50 68 -19 21 -35 39 -35 42 0 11 -35 42 -42 38 -16 -10
-8 19 10 32 12 9 14 16 7 23 -8 8 -16 5 -28 -9z"/>
<path d="M4657 8903 c-4 -3 -7 -19 -7 -35 0 -23 -4 -28 -25 -28 -18 0 -25 -5
-25 -19 0 -10 -8 -22 -17 -26 -17 -6 -17 -7 0 -19 9 -7 17 -21 17 -30 0 -9 7
-16 15 -16 8 0 15 -5 15 -10 0 -6 -7 -13 -15 -16 -11 -5 -15 -24 -16 -73 -1
-36 -5 -79 -9 -96 l-8 -30 -1 28 c-1 22 -6 27 -26 27 -22 0 -25 4 -25 40 0 36
-2 40 -25 40 -14 0 -25 -4 -25 -10 0 -5 -7 -10 -15 -10 -10 0 -15 -10 -15 -29
0 -18 -8 -35 -19 -43 -10 -7 -21 -23 -25 -35 -7 -23 -7 -23 103 -23 l111 0 0
88 c0 113 11 132 81 132 27 0 49 5 49 10 0 6 -16 10 -35 10 l-35 0 0 90 c0 83
-5 101 -23 83z"/>
<path d="M10620 8861 c0 -6 5 -13 10 -16 6 -3 10 1 10 9 0 9 -4 16 -10 16 -5
0 -10 -4 -10 -9z"/>
<path d="M3040 8815 c0 -8 7 -15 15 -15 8 0 15 7 15 15 0 8 -7 15 -15 15 -8 0
-15 -7 -15 -15z"/>
<path d="M8906 8822 c-9 -2 -21 -15 -26 -28 -5 -13 -17 -24 -27 -24 -16 0 -18
-9 -15 -82 3 -88 14 -108 57 -108 32 0 75 -23 75 -40 1 -37 26 -50 92 -50 l66
0 6 32 c6 30 0 41 -28 51 -19 6 6 28 25 22 13 -4 19 -2 19 9 0 9 -4 16 -10 16
-5 0 -10 7 -10 15 0 8 -4 15 -10 15 -5 0 -19 9 -30 20 -16 16 -19 28 -14 59 4
24 2 41 -5 45 -6 4 -11 17 -11 29 0 20 -5 22 -68 22 -38 0 -76 -2 -86 -3z"/>
<path d="M15975 8820 c3 -5 10 -10 16 -10 5 0 9 5 9 10 0 6 -7 10 -16 10 -8 0
-12 -4 -9 -10z"/>
<path d="M10590 8800 c0 -11 -6 -20 -14 -20 -8 0 -18 -4 -21 -10 -7 -12 22
-70 35 -70 6 0 10 -5 10 -11 0 -7 8 -17 17 -24 24 -18 53 2 53 37 0 31 -19 78
-32 78 -4 0 -8 9 -8 20 0 13 -7 20 -20 20 -13 0 -20 -7 -20 -20z"/>
<path d="M11356 8795 c-3 -8 -1 -15 4 -15 6 0 10 7 10 15 0 8 -2 15 -4 15 -2
0 -6 -7 -10 -15z"/>
<path d="M14983 8785 c-12 -17 -23 -24 -23 -17 0 18 -30 15 -30 -4 0 -12 -5
-13 -22 -7 -13 4 -35 7 -50 7 -17 -1 -28 4 -28 12 0 8 -7 14 -15 14 -20 0 -19
-27 2 -39 15 -8 16 -12 4 -35 -14 -26 -31 -26 -31 0 0 17 -2 17 -35 2 -22 -10
-25 -18 -25 -58 0 -72 -11 -112 -32 -117 -10 -3 -18 -9 -18 -13 0 -4 -18 -10
-40 -14 -22 -3 -40 -11 -40 -16 0 -6 124 -10 345 -10 l345 0 0 24 c0 13 -6 29
-14 35 -8 7 -17 25 -21 40 -8 39 -47 69 -92 73 -36 3 -38 5 -41 41 -2 22 -10
41 -18 44 -8 3 -14 14 -14 24 0 23 -28 26 -36 4 -11 -26 -42 -18 -46 12 l-3
28 -22 -30z m-213 -155 c0 -5 -4 -10 -10 -10 -5 0 -10 5 -10 10 0 6 5 10 10
10 6 0 10 -4 10 -10z"/>
<path d="M8376 8772 c-3 -4 -15 -39 -27 -76 -12 -37 -28 -70 -36 -73 -7 -3
-13 -11 -13 -17 0 -7 -11 -19 -25 -26 -20 -11 -25 -21 -25 -52 l0 -38 158 2
c86 0 142 3 125 5 -40 5 -52 25 -63 103 -4 31 -21 83 -37 115 -27 57 -45 75
-57 57z"/>
<path d="M4240 8745 c0 -14 5 -25 10 -25 6 0 10 11 10 25 0 14 -4 25 -10 25
-5 0 -10 -11 -10 -25z"/>
<path d="M9883 8715 c-42 -18 -51 -53 -28 -106 37 -81 136 -121 175 -69 34 45
29 150 -7 150 -8 0 -31 9 -53 20 -46 23 -45 23 -87 5z"/>
<path d="M4770 8690 c0 -5 15 -10 33 -10 24 0 28 3 17 10 -20 13 -50 13 -50 0z"/>
<path d="M4835 8671 c-3 -5 2 -11 10 -15 8 -3 17 -1 20 3 3 5 -2 11 -10 15 -8
3 -17 1 -20 -3z"/>
<path d="M2920 8655 c0 -8 7 -15 15 -15 8 0 15 7 15 15 0 8 -7 15 -15 15 -8 0
-15 -7 -15 -15z"/>
<path d="M4370 8655 c0 -8 7 -15 15 -15 8 0 15 7 15 15 0 8 -7 15 -15 15 -8 0
-15 -7 -15 -15z"/>
<path d="M4965 8610 c3 -5 10 -10 16 -10 5 0 9 5 9 10 0 6 -7 10 -16 10 -8 0
-12 -4 -9 -10z"/>
<path d="M10620 8611 c0 -5 -9 -7 -20 -4 -13 4 -20 0 -20 -9 0 -8 -12 -21 -26
-28 -14 -8 -30 -22 -35 -32 -5 -10 -20 -18 -32 -18 -12 -1 -33 -7 -47 -15 -23
-13 -12 -14 113 -15 138 0 138 0 131 22 -9 29 -29 49 -40 40 -5 -4 -3 1 4 10
11 13 11 20 0 37 -13 22 -28 28 -28 12z"/>
<path d="M4210 8575 c0 -8 7 -15 15 -15 8 0 15 7 15 15 0 8 -7 15 -15 15 -8 0
-15 -7 -15 -15z"/>
<path d="M4351 8574 c0 -11 3 -14 6 -6 3 7 2 16 -1 19 -3 4 -6 -2 -5 -13z"/>
<path d="M5075 8560 c3 -5 13 -10 21 -10 8 0 14 5 14 10 0 6 -9 10 -21 10 -11
0 -17 -4 -14 -10z"/>
<path d="M5235 8500 c4 -6 11 -8 16 -5 14 9 11 15 -7 15 -8 0 -12 -5 -9 -10z"/>
<path d="M12836 6732 c-4 -10 -15 -27 -26 -37 -22 -20 -16 -46 8 -38 9 3 28
17 41 30 l24 25 -21 20 c-20 20 -20 20 -26 0z"/>
<path d="M5000 5840 l0 -170 25 0 25 0 0 170 0 170 -25 0 -25 0 0 -170z"/>
<path d="M6690 5860 l0 -150 -40 0 -40 0 0 145 0 145 -30 0 -30 0 0 -320 0
-320 30 0 30 0 0 150 0 150 40 0 40 0 0 -160 0 -160 30 0 30 0 0 268 c0 147
-3 297 -7 335 -5 62 -8 67 -29 67 l-24 0 0 -150z"/>
<path d="M9100 5675 l0 -335 30 0 30 0 0 335 0 335 -30 0 -30 0 0 -335z"/>
<path d="M12220 5675 l0 -335 30 0 30 0 0 335 0 335 -30 0 -30 0 0 -335z"/>
<path d="M13680 5825 l0 -185 25 0 25 0 0 185 0 185 -25 0 -25 0 0 -185z"/>
<path d="M14380 5840 l0 -170 30 0 30 0 0 170 0 170 -30 0 -30 0 0 -170z"/>
<path d="M15100 5675 l0 -335 30 0 30 0 0 335 0 335 -30 0 -30 0 0 -335z"/>
<path d="M15790 5675 l0 -335 30 0 30 0 0 180 0 180 60 0 c57 0 60 1 60 25 0
24 -3 25 -60 25 l-60 0 0 130 0 130 -30 0 -30 0 0 -335z"/>
<path d="M4880 5930 l0 -70 -40 0 -40 0 0 65 0 65 -30 0 c-30 0 -30 -1 -30
-55 l0 -55 -85 0 -85 0 0 55 c0 54 0 55 -30 55 l-30 0 0 -145 0 -145 145 0
145 0 0 55 0 55 40 0 40 0 0 -70 0 -70 30 0 30 0 0 165 0 165 -30 0 -30 0 0
-70z m-140 -140 l0 -40 -85 0 -85 0 0 40 0 40 85 0 85 0 0 -40z"/>
<path d="M5401 5987 c-18 -6 -49 -25 -67 -42 -29 -28 -34 -39 -34 -78 0 -85
80 -137 210 -137 82 0 135 17 176 56 29 27 34 38 34 79 0 41 -5 52 -34 79 -18
18 -51 37 -73 44 -49 14 -165 14 -212 -1z m184 -48 c54 -15 75 -36 75 -74 0
-42 -25 -63 -91 -77 -64 -13 -133 -5 -177 22 -26 16 -32 26 -32 53 0 20 7 41
18 50 37 33 135 46 207 26z"/>
<path d="M7811 5987 c-18 -6 -49 -25 -67 -42 -29 -28 -34 -39 -34 -80 0 -41 5
-52 34 -79 41 -39 94 -56 176 -56 82 0 135 17 176 56 29 27 34 38 34 79 0 41
-5 52 -34 79 -18 18 -51 37 -73 44 -49 14 -165 14 -212 -1z m184 -48 c54 -15
75 -36 75 -74 0 -42 -25 -63 -94 -77 -65 -14 -156 0 -187 28 -24 22 -25 76 -1
97 37 33 135 46 207 26z"/>
<path d="M8980 5880 l0 -120 -45 0 -45 0 0 95 0 95 -140 0 -140 0 0 -210 0
-210 140 0 140 0 0 90 0 90 45 0 45 0 0 -175 0 -175 25 0 25 0 0 320 0 320
-25 0 -25 0 0 -120z m-150 -140 l0 -160 -80 0 -80 0 0 160 0 160 80 0 80 0 0
-160z"/>
<path d="M10840 5875 l0 -125 210 0 210 0 0 125 0 125 -210 0 -210 0 0 -125z
m360 0 l0 -75 -150 0 -150 0 0 75 0 75 150 0 150 0 0 -75z"/>
<path d="M13560 5920 l0 -80 -50 0 c-47 0 -50 -2 -50 -25 0 -23 3 -25 50 -25
l50 0 0 -75 c0 -73 1 -75 25 -75 l25 0 0 180 0 180 -25 0 c-25 0 -25 -1 -25
-80z"/>
<path d="M14025 5986 c-16 -8 -43 -28 -60 -45 -27 -29 -30 -38 -30 -101 0 -63
3 -72 30 -101 81 -85 224 -77 285 17 14 20 20 46 20 84 0 65 -21 103 -77 137
-44 26 -120 30 -168 9z m154 -64 c66 -49 45 -154 -36 -182 -38 -13 -48 -13
-85 0 -34 12 -47 24 -62 54 -17 36 -18 43 -5 80 25 73 122 97 188 48z"/>
<path d="M3860 5870 l0 -120 215 0 215 0 0 25 0 25 -190 0 -190 0 0 95 c0 95
0 95 -25 95 l-25 0 0 -120z"/>
<path d="M9400 5870 l0 -120 220 0 220 0 0 25 0 25 -195 0 -195 0 0 95 c0 95
0 95 -25 95 l-25 0 0 -120z"/>
<path d="M10080 5965 l0 -25 110 0 c100 0 109 -2 103 -17 -17 -50 -101 -107
-194 -133 -59 -16 -59 -16 -43 -39 14 -19 22 -22 53 -16 50 9 140 59 184 102
l37 36 24 -27 c36 -38 113 -84 174 -103 l54 -17 20 24 19 23 -73 22 c-89 25
-144 57 -169 99 -10 17 -19 34 -19 39 0 4 50 7 110 7 l110 0 0 25 0 25 -250 0
-250 0 0 -25z"/>
<path d="M13220 5815 l0 -165 113 0 c138 0 157 5 157 37 l0 24 -110 -7 -110
-7 0 47 0 46 75 0 c73 0 75 1 75 25 0 24 -2 25 -75 25 l-75 0 0 45 0 45 105 0
105 0 0 25 0 25 -130 0 -130 0 0 -165z"/>
<path d="M6319 5848 c-4 -99 -7 -120 -32 -170 -16 -32 -48 -78 -72 -102 l-44
-43 23 -22 23 -22 36 41 c20 23 48 66 64 96 15 30 31 54 34 54 3 0 15 -19 25
-42 10 -23 36 -64 57 -91 l39 -49 24 23 24 22 -40 43 c-21 23 -51 66 -66 96
-25 47 -29 67 -32 166 l-4 112 -28 0 -28 0 -3 -112z"/>
<path d="M11897 5873 c-8 -128 -35 -192 -117 -275 -64 -66 -65 -69 -45 -82 17
-11 24 -11 43 2 29 19 105 118 128 165 l18 37 29 -51 c16 -28 53 -76 83 -107
52 -54 54 -55 73 -38 19 18 19 19 -38 74 -82 81 -113 151 -119 270 -4 87 -6
92 -27 92 -21 0 -22 -6 -28 -87z"/>
<path d="M6980 5925 l0 -25 190 0 190 0 0 -45 0 -45 -190 0 -190 0 0 -105 0
-105 95 0 95 0 0 -55 0 -55 -145 0 -145 0 0 -25 0 -25 320 0 320 0 0 25 0 25
-145 0 -145 0 0 55 0 55 105 0 105 0 0 25 0 25 -200 0 -200 0 0 55 0 55 190 0
190 0 0 95 0 95 -220 0 -220 0 0 -25z"/>
<path d="M12720 5917 c0 -77 -92 -168 -207 -204 -51 -16 -51 -16 -35 -39 9
-13 22 -24 28 -24 31 -1 156 75 198 120 l47 50 32 -37 c37 -42 133 -107 183
-123 31 -11 36 -9 53 12 l19 23 -59 21 c-115 42 -188 112 -197 190 -4 41 -7
44 -33 44 -26 0 -29 -3 -29 -33z"/>
<path d="M14670 5745 l0 -205 173 0 c203 0 216 2 209 36 l-4 24 -164 -7 -164
-6 0 181 0 182 -25 0 -25 0 0 -205z"/>
<path d="M15360 5739 l0 -210 179 3 c99 2 182 5 185 8 3 3 3 16 -1 28 -5 22
-7 22 -154 15 l-149 -6 0 161 0 162 130 0 130 0 0 25 0 25 -160 0 -160 0 0
-211z"/>
<path d="M1706 5707 c-15 -19 -26 -41 -26 -50 0 -19 20 -33 29 -20 3 5 13 12
22 15 16 6 49 60 49 80 0 4 -11 8 -24 8 -17 0 -34 -12 -50 -33z"/>
<path d="M10730 5655 l0 -25 150 0 150 0 0 -70 c0 -68 1 -70 25 -70 24 0 25 2
25 70 l0 70 145 0 145 0 0 25 0 25 -320 0 -320 0 0 -25z"/>
<path d="M7600 5645 l0 -25 150 0 150 0 0 -75 c0 -73 1 -75 25 -75 24 0 25 2
25 75 l0 75 145 0 145 0 0 25 0 25 -320 0 -320 0 0 -25z"/>
<path d="M3750 5635 c0 -25 1 -25 90 -25 l90 0 0 -135 0 -135 25 0 25 0 0 135
0 135 90 0 90 0 0 -135 0 -135 30 0 30 0 0 135 0 135 85 0 c84 0 85 0 85 25
l0 25 -320 0 -320 0 0 -25z"/>
<path d="M5190 5635 l0 -25 320 0 320 0 0 25 0 25 -320 0 -320 0 0 -25z"/>
<path d="M9290 5635 c0 -25 1 -25 90 -25 l90 0 0 -135 0 -135 25 0 25 0 0 135
0 135 90 0 90 0 0 -135 0 -135 30 0 30 0 0 135 0 135 85 0 c84 0 85 0 85 25
l0 25 -320 0 -320 0 0 -25z"/>
<path d="M10010 5635 l0 -25 145 0 145 0 0 -135 0 -135 30 0 30 0 0 135 0 135
145 0 145 0 0 25 0 25 -320 0 -320 0 0 -25z"/>
<path d="M14020 5500 l0 -140 210 0 210 0 0 140 0 140 -30 0 c-29 0 -30 -1
-30 -50 l0 -50 -150 0 -150 0 0 50 c0 49 -1 50 -30 50 l-30 0 0 -140z m360
-50 l0 -40 -150 0 -150 0 0 40 0 40 150 0 150 0 0 -40z"/>
<path d="M4620 5605 l0 -25 190 0 190 0 0 -30 0 -30 -190 0 -190 0 0 -80 0
-80 225 0 225 0 0 25 0 25 -195 0 -195 0 0 30 0 30 185 0 185 0 0 80 0 80
-215 0 -215 0 0 -25z"/>
<path d="M13300 5480 l0 -120 215 0 215 0 0 120 0 120 -215 0 -215 0 0 -120z
m380 0 l0 -70 -160 0 -160 0 0 70 0 70 160 0 160 0 0 -70z"/>
<path d="M10830 5465 l0 -105 225 0 225 0 0 25 0 25 -195 0 -195 0 0 80 0 80
-30 0 -30 0 0 -105z"/>
<path d="M7710 5460 l0 -100 220 0 220 0 0 25 0 25 -195 0 -195 0 0 75 c0 73
-1 75 -25 75 l-25 0 0 -100z"/>
<path d="M5300 5455 l0 -95 220 0 220 0 0 25 0 25 -190 0 -190 0 0 70 0 70
-30 0 -30 0 0 -95z"/>
<path d="M1876 5513 c-5 -11 -1 -22 10 -30 24 -18 39 -1 25 26 -14 25 -27 27
-35 4z"/>
<path d="M12430 5465 l0 -25 320 0 320 0 0 25 0 25 -320 0 -320 0 0 -25z"/>
<path d="M16034 5456 c-15 -40 21 -80 54 -60 37 24 21 74 -25 74 -13 0 -26 -6
-29 -14z"/>
<path d="M7420 5059 c0 -5 23 -34 50 -62 28 -28 50 -55 50 -58 0 -4 7 -10 16
-13 15 -6 15 -4 3 13 -73 99 -119 146 -119 120z"/>
<path d="M7450 4830 c0 -5 5 -10 10 -10 6 0 10 5 10 10 0 6 -4 10 -10 10 -5 0
-10 -4 -10 -10z"/>
<path d="M6509 4169 c-11 -7 -10 -11 6 -23 22 -17 46 -17 52 0 5 15 -41 34
-58 23z"/>
<path d="M7512 4100 c12 -19 28 -27 28 -14 0 7 -27 34 -34 34 -4 0 -1 -9 6
-20z"/>
<path d="M17803 4033 c-24 -27 -30 -53 -13 -53 6 0 10 7 10 15 0 8 9 20 20 27
11 7 20 18 20 25 0 19 -13 15 -37 -14z"/>
<path d="M1691 4034 c0 -11 3 -14 6 -6 3 7 2 16 -1 19 -3 4 -6 -2 -5 -13z"/>
<path d="M6800 4023 c0 -2 14 -18 30 -35 23 -23 36 -29 55 -24 27 7 25 30 -3
41 -27 11 -82 23 -82 18z"/>
<path d="M17861 3972 c-23 -45 -21 -107 2 -99 30 9 45 78 28 122 -7 18 -11 15
-30 -23z"/>
<path d="M6805 3919 c-9 -14 -4 -18 36 -24 19 -3 27 -2 19 1 -8 4 -19 13 -23
20 -10 17 -23 18 -32 3z"/>
<path d="M9712 3855 c0 -16 2 -22 5 -12 2 9 2 23 0 30 -3 6 -5 -1 -5 -18z"/>
<path d="M6801 3754 c0 -11 3 -14 6 -6 3 7 2 16 -1 19 -3 4 -6 -2 -5 -13z"/>
<path d="M6865 3740 c-3 -6 1 -13 10 -16 19 -8 30 0 20 15 -8 14 -22 14 -30 1z"/>
<path d="M6993 3713 c-20 -7 -15 -33 5 -33 24 0 32 8 25 26 -5 15 -10 16 -30
7z"/>
<path d="M1425 3645 c7 -46 42 -125 56 -125 12 0 12 23 -1 36 -5 5 -21 36 -35
69 -24 56 -25 58 -20 20z"/>
<path d="M6850 3647 c0 -14 47 -37 76 -37 15 0 19 26 6 34 -4 2 -24 7 -45 11
-29 6 -37 4 -37 -8z"/>
<path d="M1365 3489 c-9 -13 -6 -15 25 -22 14 -3 32 -2 40 3 11 7 9 11 -13 19
-35 14 -44 14 -52 0z"/>
<path d="M7222 3418 c-29 -29 -2 -68 47 -68 12 0 21 -4 21 -9 0 -5 24 -17 53
-26 28 -10 66 -25 83 -35 17 -10 46 -21 63 -25 31 -6 31 -6 31 32 0 21 -6 49
-13 63 -11 21 -20 25 -65 26 -34 0 -58 7 -71 18 -11 10 -30 17 -43 15 -13 -1
-36 3 -51 9 -35 15 -40 15 -55 0z"/>
<path d="M1476 3389 c-18 -26 -21 -59 -6 -59 19 0 42 48 32 66 -8 15 -11 14
-26 -7z"/>
<path d="M1541 3374 c0 -11 3 -14 6 -6 3 7 2 16 -1 19 -3 4 -6 -2 -5 -13z"/>
<path d="M1120 3345 c0 -8 2 -15 4 -15 2 0 6 7 10 15 3 8 1 15 -4 15 -6 0 -10
-7 -10 -15z"/>
<path d="M17926 3347 c-14 -10 -15 -17 -5 -46 11 -32 13 -33 26 -16 15 21 18
61 4 69 -4 3 -16 0 -25 -7z"/>
<path d="M1360 3304 c0 -8 5 -12 10 -9 6 3 10 10 10 16 0 5 -4 9 -10 9 -5 0
-10 -7 -10 -16z"/>
<path d="M1499 3304 c-17 -20 -26 -144 -10 -144 18 0 41 57 41 104 0 50 -11
64 -31 40z"/>
<path d="M1305 3300 c-9 -14 4 -52 16 -45 12 8 12 42 0 50 -5 3 -12 1 -16 -5z"/>
<path d="M1010 3279 c0 -5 5 -7 10 -4 6 3 10 8 10 11 0 2 -4 4 -10 4 -5 0 -10
-5 -10 -11z"/>
<path d="M970 3240 c0 -5 4 -10 9 -10 6 0 13 5 16 10 3 6 -1 10 -9 10 -9 0
-16 -4 -16 -10z"/>
<path d="M1373 3228 c-11 -6 -23 -21 -26 -35 -5 -25 -4 -25 26 6 34 33 34 44
0 29z"/>
<path d="M7467 3083 c-12 -11 -8 -23 8 -23 8 0 15 7 15 15 0 16 -12 20 -23 8z"/>
<path d="M5475 3060 c-8 -13 15 -13 35 0 12 8 11 10 -7 10 -12 0 -25 -4 -28
-10z"/>
<path d="M5400 3050 c0 -5 5 -10 10 -10 6 0 10 5 10 10 0 6 -4 10 -10 10 -5 0
-10 -4 -10 -10z"/>
<path d="M5315 3030 c3 -5 10 -10 16 -10 5 0 9 5 9 10 0 6 -7 10 -16 10 -8 0
-12 -4 -9 -10z"/>
<path d="M5495 2980 c3 -5 13 -10 21 -10 8 0 14 5 14 10 0 6 -9 10 -21 10 -11
0 -17 -4 -14 -10z"/>
<path d="M4325 2809 c-8 -57 -2 -68 25 -51 11 7 33 12 49 12 43 0 81 20 81 43
0 10 -9 21 -20 24 -11 3 -20 9 -20 14 0 5 -8 9 -17 9 -13 0 -15 -2 -5 -8 9 -6
2 -14 -22 -27 -39 -21 -57 -14 -38 15 10 17 10 20 -7 20 -15 0 -20 -10 -26
-51z"/>
</g>
</svg>
